<svg width="50" height="50" viewBox="0 0 50 50" fill="none" xmlns="http://www.w3.org/2000/svg">
<path d="M41.6667 24.6458C41.1141 24.6458 40.5842 24.8653 40.1935 25.256C39.8028 25.6467 39.5833 26.1766 39.5833 26.7292V38.3333C39.5833 38.6649 39.4516 38.9828 39.2172 39.2172C38.9828 39.4516 38.6649 39.5833 38.3333 39.5833H11.6667C11.3351 39.5833 11.0172 39.4516 10.7828 39.2172C10.5484 38.9828 10.4167 38.6649 10.4167 38.3333V11.6667C10.4167 11.3351 10.5484 11.0172 10.7828 10.7828C11.0172 10.5484 11.3351 10.4167 11.6667 10.4167H31.6042C32.1567 10.4167 32.6866 10.1972 33.0773 9.80647C33.468 9.41577 33.6875 8.88587 33.6875 8.33333C33.6875 7.7808 33.468 7.25089 33.0773 6.86019C32.6866 6.46949 32.1567 6.25 31.6042 6.25H11.6667C10.2318 6.25549 8.8572 6.82793 7.84257 7.84257C6.82793 8.8572 6.25549 10.2318 6.25 11.6667V38.3333C6.25549 39.7682 6.82793 41.1428 7.84257 42.1574C8.8572 43.1721 10.2318 43.7445 11.6667 43.75H38.3333C39.7682 43.7445 41.1428 43.1721 42.1574 42.1574C43.1721 41.1428 43.7445 39.7682 43.75 38.3333V26.7292C43.75 26.1766 43.5305 25.6467 43.1398 25.256C42.7491 24.8653 42.2192 24.6458 41.6667 24.6458V24.6458Z" fill="#231F20"/>
<path d="M22.3333 22.9167C21.9424 22.5651 21.433 22.3743 20.9072 22.3827C20.3815 22.391 19.8784 22.5978 19.4988 22.9616C19.1191 23.3254 18.8911 23.8193 18.8604 24.3442C18.8298 24.8691 18.9987 25.3861 19.3333 25.7917L23.9583 30.6459C24.152 30.849 24.3846 31.0109 24.6424 31.1219C24.9002 31.2329 25.1777 31.2906 25.4583 31.2917C25.7375 31.2933 26.0141 31.2388 26.2718 31.1315C26.5295 31.0241 26.7629 30.866 26.9583 30.6667L41.0833 16.0834C41.2748 15.8864 41.4257 15.6536 41.5272 15.3983C41.6288 15.143 41.6791 14.8703 41.6752 14.5956C41.6713 14.3209 41.6134 14.0496 41.5047 13.7973C41.396 13.545 41.2386 13.3165 41.0417 13.125C40.8447 12.9335 40.6119 12.7827 40.3566 12.6811C40.1014 12.5796 39.8286 12.5293 39.5539 12.5332C39.2792 12.537 39.0079 12.595 38.7556 12.7037C38.5033 12.8124 38.2748 12.9697 38.0833 13.1667L25.4792 26.2084L22.3333 22.9167Z" fill="#231F20"/>
</svg>
