<?xml version="1.0" standalone="no"?>
<!DOCTYPE svg PUBLIC "-//W3C//DTD SVG 20010904//EN"
 "http://www.w3.org/TR/2001/REC-SVG-20010904/DTD/svg10.dtd">
<svg version="1.0" xmlns="http://www.w3.org/2000/svg"
 width="512.000000pt" height="512.000000pt" viewBox="0 0 512.000000 512.000000"
 preserveAspectRatio="xMidYMid meet">

<g transform="translate(0.000000,512.000000) scale(0.100000,-0.100000)"
fill="#000000" stroke="none">
<path d="M80 4848 c-18 -13 -43 -36 -54 -51 l-21 -28 0 -2209 0 -2209 21 -28
c11 -15 36 -38 54 -51 l33 -22 2202 0 2202 0 34 23 c19 12 44 42 57 67 l22 44
0 1056 c0 1007 -1 1057 -19 1096 -52 115 -215 125 -282 17 l-24 -38 -3 -972
-2 -973 -1990 0 -1990 0 0 1990 0 1990 1629 2 1630 3 28 21 c15 11 38 36 51
54 46 68 16 182 -58 221 -33 18 -99 19 -1761 19 l-1726 0 -33 -22z"/>
<path d="M4864 4781 c-21 -16 -628 -619 -1349 -1340 l-1310 -1311 -335 335
c-340 339 -371 365 -441 365 -96 0 -173 -98 -155 -197 7 -34 55 -85 419 -451
227 -227 424 -420 439 -428 35 -18 102 -18 141 1 18 8 661 644 1429 1412 1510
1512 1431 1427 1414 1517 -21 110 -161 164 -252 97z"/>
</g>
</svg>
