<?xml version="1.0" standalone="no"?>
<!DOCTYPE svg PUBLIC "-//W3C//DTD SVG 20010904//EN"
 "http://www.w3.org/TR/2001/REC-SVG-20010904/DTD/svg10.dtd">
<svg version="1.0" xmlns="http://www.w3.org/2000/svg"
 width="512.000000pt" height="512.000000pt" viewBox="0 0 512.000000 512.000000"
 preserveAspectRatio="xMidYMid meet">

<g transform="translate(0.000000,512.000000) scale(0.100000,-0.100000)"
fill="#000000" stroke="none">
<path d="M29 5091 l-29 -29 0 -2161 0 -2160 24 -28 24 -28 316 -3 315 -3 3
-315 3 -316 28 -24 28 -24 2160 0 2161 0 29 29 29 29 0 2161 0 2160 -24 28
-24 28 -316 3 -315 3 -3 315 -3 316 -28 24 -28 24 -2160 0 -2161 0 -29 -29z
m4241 -396 l0 -255 -1749 0 c-1278 0 -1757 -3 -1781 -11 -64 -23 -60 95 -60
-1829 l0 -1750 -255 0 -255 0 0 2050 0 2050 2050 0 2050 0 0 -255z m680 -2475
l0 -2050 -2050 0 -2050 0 0 2043 c0 1124 3 2047 7 2050 3 4 926 7 2050 7
l2043 0 0 -2050z"/>
<path d="M1935 3185 c-18 -17 -25 -35 -25 -62 0 -36 16 -54 435 -473 l435
-435 -435 -435 c-396 -396 -435 -438 -435 -468 0 -46 38 -82 87 -82 36 0 53
16 470 432 l433 433 427 -427 c277 -276 437 -429 455 -433 58 -14 118 44 104
101 -5 20 -133 155 -434 456 l-427 428 433 433 c393 394 432 436 432 466 0 23
-9 41 -30 63 -57 57 -50 62 -525 -412 l-430 -430 -435 435 c-419 418 -437 435
-473 435 -27 0 -45 -7 -62 -25z"/>
</g>
</svg>
