<?xml version="1.0" standalone="no"?>
<!DOCTYPE svg PUBLIC "-//W3C//DTD SVG 20010904//EN"
 "http://www.w3.org/TR/2001/REC-SVG-20010904/DTD/svg10.dtd">
<svg version="1.0" xmlns="http://www.w3.org/2000/svg"
 width="512.000000pt" height="512.000000pt" viewBox="0 0 512.000000 512.000000"
 preserveAspectRatio="xMidYMid meet">

<g transform="translate(0.000000,512.000000) scale(0.100000,-0.100000)"
fill="#000000" stroke="none">
<path d="M1020 5101 c-177 -56 -325 -182 -404 -343 -81 -164 -76 2 -76 -2188
0 -2190 -5 -2024 76 -2188 64 -131 165 -232 296 -296 162 -80 60 -76 1651 -76
1257 0 1427 2 1495 16 249 51 455 249 519 497 17 69 18 147 18 1633 l0 1561
-29 38 c-43 56 -1273 1343 -1295 1355 -13 7 -379 10 -1108 9 -1010 0 -1092 -1
-1143 -18z m2070 -643 c0 -468 4 -501 62 -611 62 -116 165 -205 294 -255 l69
-27 418 -3 417 -3 0 -1448 c0 -943 -4 -1467 -10 -1502 -30 -158 -148 -288
-303 -334 -44 -13 -230 -15 -1468 -15 -1384 0 -1418 0 -1481 20 -129 40 -238
149 -278 278 -20 63 -20 98 -20 2012 0 1923 0 1949 20 2013 39 127 148 236
276 277 56 18 107 19 1032 19 l972 1 0 -422z m725 -268 l356 -375 -302 -3
c-299 -2 -302 -2 -353 21 -69 32 -116 75 -146 134 -25 48 -25 49 -28 383 l-3
335 60 -60 c33 -33 220 -229 416 -435z"/>
<path d="M2233 3544 c-50 -18 -112 -76 -136 -126 -9 -19 -20 -67 -23 -107 l-7
-71 -244 0 c-264 0 -280 -3 -322 -56 -26 -33 -28 -95 -4 -135 26 -43 69 -59
161 -59 80 0 80 0 86 -27 3 -16 33 -352 67 -748 68 -791 67 -789 132 -816 26
-11 150 -14 634 -14 594 0 602 0 630 21 15 11 34 33 42 49 8 17 36 282 77 754
35 399 64 738 64 754 l0 27 88 0 c69 0 94 4 119 20 61 37 79 108 43 168 -35
57 -61 62 -335 62 l-245 0 0 65 c0 105 -44 179 -135 228 -38 21 -53 22 -345
24 -251 2 -312 -1 -347 -13z m587 -269 l0 -35 -250 0 -250 0 0 35 0 35 250 0
250 0 0 -35z m268 -932 c-31 -357 -57 -663 -58 -680 l0 -33 -460 0 c-253 0
-460 2 -460 4 0 3 -27 307 -60 677 -33 369 -60 673 -60 675 0 2 260 4 578 4
l578 0 -58 -647z"/>
<path d="M1494 1094 c-95 -47 -79 -194 24 -224 26 -8 351 -10 1072 -8 997 3
1036 4 1063 22 56 38 72 106 37 163 -40 67 30 63 -1122 63 -908 0 -1047 -2
-1074 -16z"/>
</g>
</svg>
