<svg width="392" height="403" viewBox="0 0 392 403" fill="none" xmlns="http://www.w3.org/2000/svg">
<path d="M196.929 402.404C276.458 402.404 340.929 396.235 340.929 388.624C340.929 381.014 276.458 374.844 196.929 374.844C117.4 374.844 52.9289 381.014 52.9289 388.624C52.9289 396.235 117.4 402.404 196.929 402.404Z" fill="#5FB3B3"/>
<path opacity="0.5" d="M196.929 402.404C276.458 402.404 340.929 396.235 340.929 388.624C340.929 381.014 276.458 374.844 196.929 374.844C117.4 374.844 52.9289 381.014 52.9289 388.624C52.9289 396.235 117.4 402.404 196.929 402.404Z" fill="white"/>
<path d="M306.539 121.384C307.029 125.444 305.069 131.384 300.869 130.934C300.183 130.848 299.51 130.673 298.869 130.414C299.279 127.414 297.469 124.024 298.969 121.414C299.779 119.954 301.839 117.244 303.439 117.004C305.619 116.654 306.259 119.154 306.539 121.384Z" fill="#5FB3B3"/>
<path d="M301.909 134.244C300.509 137.244 298.589 139.694 294.079 139.574C293.069 139.533 292.088 139.222 291.239 138.674C290.817 138.419 290.455 138.076 290.177 137.669C289.9 137.262 289.713 136.8 289.629 136.314C289.585 135.677 289.732 135.04 290.051 134.487C290.369 133.933 290.846 133.486 291.419 133.204C292.576 132.637 293.841 132.323 295.129 132.284C296.503 132.197 297.882 132.339 299.209 132.704C300.191 133.057 301.105 133.578 301.909 134.244V134.244Z" fill="#5FB3B3"/>
<path d="M291.939 123.354C296.669 128.764 301.879 133.584 306.589 138.794" stroke="#5FB3B3" stroke-miterlimit="10"/>
<path d="M321.619 137.964C321.764 140.265 321.164 142.551 319.909 144.484C318.699 146.284 316.909 147.354 314.909 146.864C314.258 146.672 313.628 146.414 313.029 146.094C313.322 144.544 313.359 142.956 313.139 141.394C312.873 139.882 313.079 138.325 313.729 136.934C314.569 135.484 316.569 132.684 318.309 132.644C320.629 132.594 321.489 135.534 321.619 137.964Z" fill="#5FB3B3"/>
<path d="M315.419 150.274C314.572 151.63 313.418 152.768 312.049 153.594C310.454 154.413 308.632 154.68 306.869 154.354C305.953 154.235 305.087 153.865 304.369 153.284C304.019 153.037 303.736 152.706 303.545 152.322C303.355 151.938 303.264 151.512 303.279 151.084C303.359 150.463 303.599 149.874 303.976 149.374C304.353 148.874 304.854 148.481 305.429 148.234C306.582 147.734 307.834 147.505 309.089 147.564C310.437 147.569 311.77 147.844 313.009 148.374C313.917 148.861 314.733 149.505 315.419 150.274Z" fill="#5FB3B3"/>
<path d="M306.589 138.844C308.979 141.414 311.169 144.144 313.309 146.904C315.449 149.664 317.369 152.604 319.159 155.614" stroke="#5FB3B3" stroke-miterlimit="10"/>
<path d="M334.069 157.574C333.459 161.954 329.669 166.774 325.809 165.064C325.193 164.775 324.618 164.405 324.099 163.964C324.432 163.257 324.664 162.506 324.789 161.734C324.919 160.964 324.989 160.164 325.079 159.374C325.119 157.837 325.632 156.349 326.549 155.114C327.659 153.854 330.129 151.504 331.879 151.784C334.129 152.184 334.389 155.214 334.069 157.574Z" fill="#5FB3B3"/>
<path d="M325.719 168.514C323.369 170.944 320.769 172.514 316.589 171.024C314.799 170.434 313.189 168.804 313.589 167.024C313.771 166.426 314.11 165.888 314.571 165.466C315.031 165.043 315.597 164.753 316.209 164.624C317.449 164.34 318.738 164.34 319.979 164.624C321.295 164.911 322.546 165.44 323.669 166.184C324.496 166.821 325.192 167.613 325.719 168.514V168.514Z" fill="#5FB3B3"/>
<path d="M319.129 155.564C322.734 161.588 325.886 167.872 328.559 174.364" stroke="#5FB3B3" stroke-miterlimit="10"/>
<path d="M343.129 178.934C342.48 181.2 341.066 183.172 339.129 184.514C337.329 185.724 335.279 186.014 333.599 184.784C333.06 184.371 332.57 183.898 332.139 183.374C333.006 182.044 333.601 180.555 333.889 178.994C334.118 177.483 334.818 176.084 335.889 174.994C337.149 173.914 339.969 171.994 341.629 172.454C342.131 172.619 342.57 172.933 342.889 173.355C343.207 173.777 343.388 174.286 343.409 174.814C343.619 176.191 343.523 177.598 343.129 178.934V178.934Z" fill="#5FB3B3"/>
<path d="M332.779 188.124C329.939 189.944 327.019 190.714 323.329 188.584C321.769 187.694 320.539 186.044 321.329 184.584C321.667 184.084 322.111 183.665 322.63 183.355C323.148 183.046 323.728 182.854 324.329 182.794C325.563 182.659 326.81 182.835 327.959 183.304C329.201 183.775 330.33 184.504 331.269 185.444C331.941 186.231 332.454 187.141 332.779 188.124Z" fill="#5FB3B3"/>
<path d="M328.589 174.364L330.589 179.254C331.205 180.866 331.729 182.512 332.159 184.184C333.047 187.552 333.705 190.977 334.129 194.434" stroke="#5FB3B3" stroke-miterlimit="10"/>
<path d="M346.689 202.844C345.414 204.81 343.527 206.3 341.319 207.084C339.239 207.754 337.219 207.454 335.919 205.814C335.519 205.268 335.184 204.677 334.919 204.054C337.399 202.234 338.219 198.384 340.979 197.054C342.509 196.374 345.769 195.254 347.209 196.284C349.129 197.754 348.039 200.844 346.689 202.844Z" fill="#5FB3B3"/>
<path d="M334.129 208.844C332.611 209.342 330.998 209.476 329.419 209.234C327.697 208.867 326.13 207.981 324.929 206.694C323.669 205.434 322.929 203.524 324.099 202.204C324.549 201.777 325.098 201.469 325.697 201.307C326.295 201.145 326.925 201.133 327.529 201.274C328.753 201.554 329.896 202.111 330.869 202.904C331.922 203.72 332.8 204.74 333.449 205.904C333.869 206.829 334.1 207.829 334.129 208.844V208.844Z" fill="#5FB3B3"/>
<path d="M334.129 194.434C335.046 201.331 334.874 208.33 333.619 215.174" stroke="#5FB3B3" stroke-miterlimit="10"/>
<path d="M342.329 227.844C341.333 228.578 340.221 229.14 339.039 229.504C337.916 229.845 336.738 229.967 335.569 229.864C334.569 229.837 333.604 229.489 332.817 228.871C332.03 228.254 331.463 227.399 331.199 226.434C331.066 225.775 330.992 225.106 330.979 224.434C332.494 223.956 333.893 223.17 335.089 222.124C336.238 221.077 337.653 220.364 339.179 220.064C340.849 219.924 344.329 219.864 345.319 221.414C346.679 223.444 344.429 226.224 342.329 227.844Z" fill="#5FB3B3"/>
<path d="M328.369 228.304C326.725 228.092 325.169 227.44 323.866 226.415C322.563 225.39 321.562 224.032 320.969 222.484C320.259 220.934 320.239 219.244 321.719 218.614C322.303 218.435 322.919 218.386 323.523 218.471C324.128 218.556 324.707 218.772 325.219 219.104C326.262 219.772 327.132 220.676 327.759 221.744C328.437 222.856 328.854 224.108 328.979 225.404C328.996 226.404 328.788 227.396 328.369 228.304Z" fill="#5FB3B3"/>
<path d="M333.579 215.174C332.909 218.552 331.859 221.843 330.449 224.984C329.018 228.09 327.142 230.97 324.879 233.534" stroke="#5FB3B3" stroke-miterlimit="10"/>
<path d="M327.319 248.134C325.097 248.437 322.835 248.111 320.789 247.194C318.789 246.264 317.499 244.694 317.679 242.604C317.749 241.918 317.914 241.245 318.169 240.604C321.169 240.984 324.539 239.084 327.169 240.554C328.129 241.09 329.051 241.691 329.929 242.354C330.375 242.65 330.757 243.033 331.053 243.48C331.348 243.926 331.551 244.428 331.649 244.954C332.049 247.094 329.579 247.844 327.319 248.134Z" fill="#5FB3B3"/>
<path d="M314.369 243.634C311.369 242.194 309.039 240.194 309.039 235.814C309.039 233.964 310.129 231.764 312.109 231.474C312.748 231.416 313.389 231.551 313.951 231.861C314.512 232.171 314.968 232.642 315.259 233.214C315.846 234.357 316.186 235.611 316.259 236.894C316.378 238.261 316.259 239.638 315.909 240.964C315.565 241.942 315.043 242.847 314.369 243.634Z" fill="#5FB3B3"/>
<path d="M324.879 233.534C324.349 234.194 323.699 234.764 323.119 235.384L321.209 237.244L317.439 241.014C316.189 242.254 314.949 243.494 313.669 244.684C313.029 245.274 312.389 245.864 311.729 246.434C311.069 247.004 310.399 247.554 309.729 248.174" stroke="#5FB3B3" stroke-miterlimit="10"/>
<path d="M313.129 262.074C312.134 262.193 311.13 262.223 310.129 262.164C309.044 262.098 307.968 261.921 306.919 261.634C304.919 261.074 303.119 259.914 302.919 257.824C302.873 257.137 302.927 256.446 303.079 255.774C306.179 255.674 309.229 253.644 311.939 255.114C313.409 255.864 316.119 257.894 316.539 259.384C316.688 259.767 316.688 260.191 316.539 260.574C316.394 260.909 316.135 261.181 315.809 261.344C314.96 261.728 314.055 261.974 313.129 262.074V262.074Z" fill="#5FB3B3"/>
<path d="M299.899 259.634C298.303 259.485 296.764 258.961 295.409 258.104C294.139 257.184 293.209 255.714 292.969 253.104C292.749 250.934 293.969 247.934 296.129 247.204C296.756 246.994 297.436 247.008 298.055 247.243C298.673 247.478 299.19 247.92 299.519 248.494C300.172 249.654 300.586 250.932 300.739 252.254C300.951 253.667 300.991 255.101 300.859 256.524C300.681 257.599 300.358 258.645 299.899 259.634V259.634Z" fill="#5FB3B3"/>
<path d="M309.719 248.174C304.255 253.049 299.952 259.087 297.129 265.844" stroke="#5FB3B3" stroke-miterlimit="10"/>
<path d="M306.129 276.934C304.367 278.042 302.408 278.799 300.359 279.164C298.239 279.494 296.209 279.224 295.119 277.414C294.771 276.816 294.528 276.164 294.399 275.484C297.129 274.074 299.069 270.954 302.129 271.104C303.779 271.104 307.129 271.794 308.129 272.984C309.459 274.524 307.749 275.844 306.129 276.934Z" fill="#5FB3B3"/>
<path d="M293.129 280.344C289.909 281.254 286.759 281.864 284.059 277.394C283.492 276.329 283.193 275.141 283.189 273.934C283.185 272.744 283.619 271.594 284.409 270.704C284.896 270.25 285.524 269.976 286.188 269.929C286.852 269.881 287.513 270.063 288.059 270.444C289.129 271.218 290.039 272.193 290.739 273.314C291.534 274.506 292.186 275.788 292.679 277.134C292.848 277.652 292.952 278.19 292.989 278.734C293.129 279.274 293.129 279.844 293.129 280.344Z" fill="#5FB3B3"/>
<path d="M297.129 265.844C294.261 272.571 292.945 279.858 293.279 287.164" stroke="#5FB3B3" stroke-miterlimit="10"/>
<path d="M378.129 233.844C377.231 234.735 376.172 235.448 375.009 235.944C373.936 236.424 372.775 236.676 371.599 236.684C370.597 236.762 369.598 236.511 368.751 235.97C367.905 235.428 367.258 234.626 366.909 233.684C366.691 233.036 366.55 232.365 366.489 231.684C367.946 231.027 369.245 230.066 370.299 228.864C371.309 227.647 372.604 226.699 374.069 226.104C375.699 225.684 379.119 224.924 380.349 226.434C380.717 226.981 380.936 227.616 380.981 228.274C381.027 228.932 380.898 229.591 380.609 230.184C380.049 231.565 379.204 232.812 378.129 233.844V233.844Z" fill="#5FB3B3"/>
<path d="M364.219 235.904C362.555 235.877 360.93 235.389 359.527 234.493C358.123 233.598 356.996 232.332 356.269 230.834C355.479 229.374 355.149 227.754 356.569 227.084C357.709 226.66 358.97 226.704 360.079 227.204C361.2 227.703 362.176 228.477 362.919 229.454C363.739 230.468 364.302 231.666 364.559 232.944C364.662 233.944 364.546 234.954 364.219 235.904V235.904Z" fill="#5FB3B3"/>
<path d="M367.649 222.304C367.524 229.218 365.318 235.933 361.319 241.574" stroke="#5FB3B3" stroke-miterlimit="10"/>
<path d="M364.469 256.604C362.151 257.168 359.709 256.899 357.569 255.844C355.639 254.844 354.449 253.154 354.729 251.064C354.852 250.381 355.04 249.712 355.289 249.064C358.289 249.574 361.669 247.324 364.579 248.204C366.169 248.734 369.399 250.044 369.689 251.854C370.129 254.354 366.989 256.004 364.469 256.604Z" fill="#5FB3B3"/>
<path d="M351.379 251.844C349.967 251.093 348.75 250.021 347.829 248.714C346.914 247.212 346.471 245.47 346.559 243.714C346.548 242.86 346.762 242.019 347.179 241.274C347.355 240.941 347.616 240.661 347.936 240.462C348.256 240.264 348.623 240.154 348.999 240.144C349.612 240.187 350.207 240.371 350.738 240.682C351.269 240.992 351.721 241.421 352.059 241.934C352.75 242.968 353.189 244.15 353.339 245.384C353.522 246.697 353.42 248.034 353.039 249.304C352.659 250.252 352.095 251.116 351.379 251.844V251.844Z" fill="#5FB3B3"/>
<path d="M361.319 241.574C359.364 244.443 357.101 247.089 354.569 249.464C352.006 251.836 349.25 253.991 346.329 255.904" stroke="#5FB3B3" stroke-miterlimit="10"/>
<path d="M344.399 270.934C342.108 270.655 339.967 269.649 338.289 268.064C336.739 266.534 336.009 264.614 336.879 262.704C337.175 262.086 337.548 261.509 337.989 260.984C340.749 262.354 344.559 261.364 346.939 263.284C348.229 264.344 350.679 266.764 350.389 268.524C349.989 270.844 346.819 271.234 344.399 270.934Z" fill="#5FB3B3"/>
<path d="M333.409 262.574C331.009 260.224 329.519 257.574 330.979 253.424C331.609 251.684 333.129 250.054 334.879 250.484C335.471 250.68 336.002 251.025 336.422 251.486C336.843 251.946 337.138 252.507 337.279 253.114C337.564 254.344 337.564 255.624 337.279 256.854C337.009 258.178 336.486 259.438 335.739 260.564C335.09 261.369 334.3 262.05 333.409 262.574V262.574Z" fill="#5FB3B3"/>
<path d="M346.329 255.904C340.388 259.694 334.075 262.867 327.489 265.374" stroke="#5FB3B3" stroke-miterlimit="10"/>
<path d="M323.599 279.724C321.51 279.046 319.642 277.82 318.189 276.174C316.789 274.554 316.069 272.624 317.069 270.754C317.414 270.159 317.838 269.615 318.329 269.134C320.969 270.724 324.769 270.374 326.739 272.714C327.799 273.994 329.689 276.854 329.179 278.494C328.499 280.674 325.709 280.374 323.599 279.724Z" fill="#5FB3B3"/>
<path d="M313.559 270.504C311.199 268.134 309.379 265.564 311.559 261.214C312.499 259.384 314.669 257.714 316.559 258.284C317.16 258.5 317.683 258.888 318.064 259.401C318.445 259.913 318.666 260.527 318.699 261.164C318.767 262.448 318.552 263.732 318.069 264.924C317.585 266.233 316.893 267.456 316.019 268.544C315.3 269.315 314.471 269.975 313.559 270.504V270.504Z" fill="#5FB3B3"/>
<path d="M327.489 265.374C320.929 267.984 314.029 270.164 307.619 273.714" stroke="#5FB3B3" stroke-miterlimit="10"/>
<path d="M308.129 287.894C306.128 287.633 304.178 287.067 302.349 286.214C300.469 285.314 298.829 283.974 298.949 281.854C299.014 281.163 299.193 280.487 299.479 279.854C301.033 279.969 302.594 279.969 304.149 279.854C305.618 279.721 307.085 280.134 308.269 281.014C309.549 282.064 311.759 284.624 311.849 286.174C312.019 288.164 309.999 288.064 308.129 287.894Z" fill="#5FB3B3"/>
<path d="M295.689 283.284C294.109 282.993 292.619 282.336 291.339 281.364C290.189 280.364 289.429 278.614 289.749 275.804C289.989 273.424 291.989 270.414 294.359 270.054C295.024 269.938 295.708 270.068 296.283 270.42C296.859 270.771 297.288 271.32 297.489 271.964C297.871 273.261 297.996 274.619 297.859 275.964C297.767 277.428 297.526 278.879 297.139 280.294C296.755 281.336 296.27 282.338 295.689 283.284V283.284Z" fill="#5FB3B3"/>
<path d="M307.619 273.714C304.372 275.47 301.383 277.668 298.739 280.244C296.016 282.853 293.9 286.027 292.539 289.544" stroke="#5FB3B3" stroke-miterlimit="10"/>
<path d="M270.269 394.164C269.939 394.244 258.419 394.244 258.079 394.164C249.629 392.304 219.619 382.444 246.669 350.514H281.299C308.329 382.434 278.729 392.304 270.269 394.164Z" fill="white" stroke="#263238" stroke-miterlimit="10"/>
<path d="M281.289 350.724C281.289 351.244 280.509 351.724 279.139 352.154C276.139 351.224 270.459 350.604 263.879 350.604C257.299 350.604 251.589 351.224 248.629 352.154C247.259 351.734 246.479 351.244 246.479 350.724C246.479 349.084 254.269 347.724 263.879 347.724C273.489 347.724 281.289 349.084 281.289 350.724Z" fill="white" stroke="#263238" stroke-miterlimit="10"/>
<path d="M279.129 352.154C276.129 353.074 270.449 353.694 263.869 353.694C257.289 353.694 251.579 353.074 248.619 352.154C251.619 351.224 257.299 350.604 263.869 350.604C270.439 350.604 276.179 351.224 279.129 352.154Z" fill="#263238" stroke="#263238" stroke-miterlimit="10"/>
<path d="M277.219 359.764C278.429 359.514 279.629 359.234 280.799 358.924Z" fill="white"/>
<path d="M277.219 359.764C278.429 359.514 279.629 359.234 280.799 358.924" stroke="#263238" stroke-miterlimit="10"/>
<path d="M247.349 358.414C255.609 361.414 265.299 361.704 274.279 360.294Z" fill="white"/>
<path d="M247.349 358.414C255.609 361.414 265.299 361.704 274.279 360.294" stroke="#263238" stroke-miterlimit="10"/>
<path d="M289.129 301.654C285.179 301.984 279.709 299.504 279.879 295.654C279.928 295.04 280.056 294.435 280.259 293.854C283.119 294.524 286.129 292.944 288.829 294.254C290.309 294.994 293.239 296.754 293.539 298.414C293.899 300.624 291.279 301.474 289.129 301.654Z" fill="#5FB3B3"/>
<path d="M276.829 296.314C273.929 294.754 271.589 292.754 271.539 288.494C271.539 286.704 272.419 284.804 274.109 284.824C274.726 284.883 275.319 285.088 275.841 285.422C276.363 285.755 276.797 286.209 277.109 286.744C277.745 287.794 278.154 288.966 278.309 290.184C278.5 291.431 278.456 292.703 278.179 293.934C277.886 294.807 277.427 295.615 276.829 296.314Z" fill="#5FB3B3"/>
<path d="M285.969 287.634C281.969 292.154 277.319 296.144 272.849 300.444" stroke="#5FB3B3" stroke-miterlimit="10"/>
<path d="M276.599 313.844C274.573 313.878 272.562 313.497 270.689 312.724C268.819 311.904 267.079 310.664 266.909 308.724C266.865 308.102 266.922 307.477 267.079 306.874C269.979 307.164 272.839 305.604 275.469 307.074C276.909 307.864 279.649 309.844 280.059 311.354C280.589 313.374 278.499 313.784 276.599 313.844Z" fill="#5FB3B3"/>
<path d="M264.019 310.044C262.447 309.746 260.955 309.123 259.639 308.214C258.399 307.214 257.539 305.784 257.439 303.214C257.339 301.074 258.379 298.654 260.349 298.274C260.981 298.201 261.621 298.314 262.19 298.6C262.759 298.886 263.231 299.333 263.549 299.884C264.189 300.969 264.613 302.168 264.799 303.414C265.037 304.703 265.091 306.02 264.959 307.324C264.777 308.271 264.461 309.187 264.019 310.044V310.044Z" fill="#5FB3B3"/>
<path d="M272.849 300.444C270.586 302.598 268.446 304.879 266.439 307.274C265.416 308.5 264.481 309.797 263.639 311.154C263.239 311.854 262.809 312.524 262.449 313.244L261.449 315.404" stroke="#5FB3B3" stroke-miterlimit="10"/>
<path d="M270.659 325.624C268.865 326.556 266.91 327.14 264.899 327.344C262.829 327.544 260.749 327.164 259.699 325.534C259.379 325.002 259.139 324.426 258.989 323.824C260.285 323.197 261.512 322.436 262.649 321.554C263.765 320.718 265.135 320.29 266.529 320.344C268.149 320.454 271.459 321.244 272.529 322.294C273.249 323.004 273.199 323.594 272.749 324.124C272.157 324.755 271.447 325.265 270.659 325.624V325.624Z" fill="#5FB3B3"/>
<path d="M257.699 327.964C254.449 328.544 251.309 328.794 248.699 324.904C247.629 323.254 247.389 320.514 249.019 319.194C249.536 318.815 250.157 318.605 250.798 318.592C251.439 318.58 252.068 318.765 252.599 319.124C253.666 319.823 254.589 320.719 255.319 321.764C256.117 322.806 256.773 323.949 257.269 325.164C257.552 326.071 257.697 327.014 257.699 327.964V327.964Z" fill="#5FB3B3"/>
<path d="M261.409 315.404C260.169 318.318 259.228 321.35 258.599 324.454C257.96 327.529 257.559 330.648 257.399 333.784" stroke="#5FB3B3" stroke-miterlimit="10"/>
<path d="M269.359 340.964C267.928 342.44 266.195 343.589 264.279 344.334C262.279 345.074 260.279 345.204 258.779 343.914C258.325 343.49 257.94 342.997 257.639 342.454C259.969 340.684 260.919 337.534 263.859 336.814C265.449 336.404 268.799 335.984 270.139 336.764C271.879 337.764 270.669 339.524 269.359 340.964Z" fill="#5FB3B3"/>
<path d="M257.449 346.764C254.499 348.124 251.449 349.064 248.019 346.094C246.549 344.844 245.669 342.424 246.799 340.854C247.218 340.378 247.764 340.031 248.374 339.854C248.983 339.677 249.63 339.677 250.239 339.854C251.45 340.197 252.586 340.764 253.589 341.524C254.647 342.278 255.585 343.188 256.369 344.224C256.875 345.001 257.24 345.861 257.449 346.764V346.764Z" fill="#5FB3B3"/>
<path d="M257.399 333.784C257.062 340.034 257.445 346.302 258.539 352.464" stroke="#5FB3B3" stroke-miterlimit="10"/>
<path d="M294.869 332.684C290.919 333.904 284.999 332.534 284.599 328.554C284.553 327.912 284.593 327.266 284.719 326.634C287.719 326.704 290.489 324.434 293.429 325.164C295.029 325.594 298.269 326.744 298.829 328.364C299.559 330.554 297.029 332.064 294.869 332.684Z" fill="#5FB3B3"/>
<path d="M281.629 329.844C278.469 328.844 275.819 327.284 275.119 322.994C274.819 321.184 275.409 319.084 277.119 318.744C277.733 318.683 278.352 318.772 278.923 319.004C279.495 319.236 280.001 319.603 280.399 320.074C281.213 321.021 281.804 322.139 282.129 323.344C282.516 324.582 282.669 325.88 282.579 327.174C282.428 328.115 282.106 329.02 281.629 329.844V329.844Z" fill="#5FB3B3"/>
<path d="M289.469 319.064C286.239 324.574 282.119 329.624 278.199 334.864" stroke="#5FB3B3" stroke-miterlimit="10"/>
<path d="M283.469 348.144C281.419 348.596 279.291 348.558 277.259 348.034C275.209 347.484 273.469 346.374 273.119 344.394C273.019 343.755 273.019 343.103 273.119 342.464C276.119 342.334 278.839 340.194 281.699 341.194C283.259 341.734 286.309 343.194 286.889 344.724C287.639 346.724 285.429 347.654 283.469 348.144Z" fill="#5FB3B3"/>
<path d="M270.269 346.044C267.009 345.444 264.019 344.504 263.109 339.824C262.927 338.79 263.028 337.726 263.399 336.744C263.562 336.276 263.825 335.848 264.171 335.493C264.516 335.137 264.935 334.861 265.399 334.684C266.015 334.531 266.662 334.56 267.262 334.768C267.862 334.975 268.389 335.353 268.779 335.854C269.573 336.85 270.148 338.002 270.469 339.234C270.855 340.515 271.044 341.847 271.029 343.184C270.928 344.171 270.671 345.137 270.269 346.044Z" fill="#5FB3B3"/>
<path d="M278.199 334.844C274.089 340.045 270.559 345.678 267.669 351.644" stroke="#5FB3B3" stroke-miterlimit="10"/>
<path d="M363.059 220.364C362.623 218.02 363.08 215.598 364.339 213.574C364.489 213.384 366.699 210.694 367.449 210.764C369.114 211.598 370.449 212.968 371.239 214.654C372.175 216.417 372.568 218.418 372.369 220.404C372.139 222.264 370.289 225.814 367.789 225.964C365.289 226.114 363.389 222.074 363.059 220.364Z" fill="#5FB3B3"/>
<path d="M302.079 41.454H110.079V296.664H302.079V41.454Z" fill="white"/>
<path d="M302.129 297.164H110.129C109.996 297.164 109.869 297.111 109.775 297.018C109.682 296.924 109.629 296.797 109.629 296.664V41.454C109.629 41.3214 109.682 41.1943 109.775 41.1005C109.869 41.0067 109.996 40.954 110.129 40.954H302.129C302.262 40.954 302.389 41.0067 302.482 41.1005C302.576 41.1943 302.629 41.3214 302.629 41.454V296.664C302.629 296.797 302.576 296.924 302.482 297.018C302.389 297.111 302.262 297.164 302.129 297.164ZM110.629 296.164H301.629V41.954H110.629V296.164Z" fill="#263238"/>
<path d="M277.249 172.954H131.109V178.954H277.249V172.954Z" fill="#263238"/>
<path d="M277.249 97.384H158.199V103.384H277.249V97.384Z" fill="#263238"/>
<path d="M277.249 135.174H131.109V141.174H277.249V135.174Z" fill="#263238"/>
<path d="M239.699 248.514C237.839 250.514 235.939 252.514 233.999 254.514H131.129V248.514H239.699Z" fill="#263238"/>
<path d="M268.409 210.734C267.129 212.734 265.819 214.734 264.459 216.734H131.129V210.734H268.409Z" fill="#263238"/>
<path d="M182.789 289.774C182.789 289.774 174.249 293.924 150.329 296.164H110.579" stroke="#263238" stroke-linecap="round" stroke-linejoin="round"/>
<path d="M297.919 150.844C299.397 148.626 300.291 146.07 300.519 143.414C300.819 140.074 301.039 136.184 301.109 133.814L301.489 120.724V148.844L297.919 150.844Z" fill="#263238"/>
<path d="M300.369 147.684C300.369 148.904 289.189 178.384 268.369 210.684C267.089 212.684 265.779 214.684 264.419 216.684C256.958 227.872 248.682 238.494 239.659 248.464C237.799 250.464 235.899 252.464 233.959 254.464C219.309 269.324 202.429 281.974 183.519 289.224C184.599 288.674 201.069 280.364 204.659 254.464C204.926 252.564 205.116 250.564 205.229 248.464C205.709 239.704 204.769 229.204 201.589 216.684C201.096 214.737 200.546 212.737 199.939 210.684C195.319 195.074 187.379 176.574 174.729 154.684L171.469 147.584L192.769 153.584C287.899 175.674 300.319 147.584 300.319 147.584C300.319 147.584 300.369 147.664 300.369 147.684Z" fill="white" stroke="#263238" stroke-linecap="round" stroke-linejoin="round"/>
<path d="M218.519 236.674C218.585 238.445 218.545 240.218 218.399 241.984Z" fill="white"/>
<path d="M218.519 236.674C218.585 238.445 218.545 240.218 218.399 241.984" stroke="#263238" stroke-linecap="round" stroke-linejoin="round"/>
<path d="M195.639 168.584C209.459 186.484 216.429 216.734 218.249 231.084Z" fill="white"/>
<path d="M195.639 168.584C209.459 186.484 216.429 216.734 218.249 231.084" stroke="#263238" stroke-linecap="round" stroke-linejoin="round"/>
<path d="M133.249 69.274C131.902 69.3165 130.56 69.0879 129.303 68.6017C128.046 68.1155 126.899 67.3817 125.931 66.4438C124.963 65.5059 124.194 64.3831 123.668 63.142C123.143 61.9009 122.872 60.5668 122.872 59.219C122.872 57.8712 123.143 56.5372 123.668 55.2961C124.194 54.055 124.963 52.9322 125.931 51.9943C126.899 51.0564 128.046 50.3226 129.303 49.8364C130.56 49.3502 131.902 49.1215 133.249 49.164C133.647 49.164 134.028 49.3221 134.31 49.6034C134.591 49.8847 134.749 50.2662 134.749 50.664C134.749 51.0619 134.591 51.4434 134.31 51.7247C134.028 52.006 133.647 52.164 133.249 52.164C131.85 52.1521 130.479 52.5561 129.31 53.3246C128.141 54.0931 127.227 55.1915 126.684 56.4804C126.14 57.7694 125.992 59.1908 126.257 60.5642C126.523 61.9377 127.191 63.2012 128.175 64.1946C129.16 65.188 130.418 65.8663 131.789 66.1437C133.16 66.421 134.583 66.2847 135.877 65.7522C137.17 65.2196 138.276 64.3148 139.055 63.1525C139.833 61.9902 140.249 60.6229 140.249 59.224C140.249 58.8262 140.407 58.4447 140.688 58.1634C140.97 57.8821 141.351 57.724 141.749 57.724C142.147 57.724 142.528 57.8821 142.81 58.1634C143.091 58.4447 143.249 58.8262 143.249 59.224C143.246 61.88 142.194 64.4272 140.32 66.3099C138.447 68.1927 135.905 69.2582 133.249 69.274V69.274Z" fill="#263238"/>
<path d="M133.009 65.124C123.819 65.124 123.319 45.264 123.309 41.284V41.164C123.309 37.164 123.779 17.164 133.009 17.164C142.239 17.164 142.879 38.704 142.929 41.164L134.929 41.314C134.913 36.6857 134.239 32.083 132.929 27.644C131.752 32.038 131.2 36.576 131.289 41.124V41.244C131.2 45.8157 131.773 50.3762 132.989 54.784C133.079 54.494 133.169 54.174 133.269 53.784L133.899 51.614L139.479 53.244C139.756 53.3244 140.014 53.4587 140.238 53.639C140.463 53.8193 140.65 54.0422 140.788 54.2948C140.927 54.5475 141.014 54.825 141.045 55.1115C141.076 55.3979 141.05 55.6876 140.969 55.964V55.964C139.349 62.034 136.659 65.124 133.009 65.124Z" fill="#BFBFBF" stroke="#263238" stroke-linecap="round" stroke-linejoin="round"/>
<path d="M141.799 60.724C141.401 60.724 141.02 60.566 140.738 60.2847C140.457 60.0034 140.299 59.6219 140.299 59.224C140.299 57.362 139.563 55.5752 138.252 54.253C136.941 52.9307 135.161 52.1799 133.299 52.164C132.901 52.164 132.52 52.006 132.238 51.7247C131.957 51.4434 131.799 51.0619 131.799 50.664C131.799 50.2662 131.957 49.8847 132.238 49.6034C132.52 49.3221 132.901 49.164 133.299 49.164C135.956 49.1825 138.498 50.2502 140.371 52.1346C142.244 54.0189 143.296 56.5671 143.299 59.224C143.299 59.6219 143.141 60.0034 142.86 60.2847C142.578 60.566 142.197 60.724 141.799 60.724V60.724Z" fill="#263238"/>
<path d="M180.649 69.274C178.037 69.1917 175.56 68.0962 173.741 66.2195C171.923 64.3428 170.906 61.8322 170.906 59.219C170.906 56.6059 171.923 54.0952 173.741 52.2186C175.56 50.3419 178.037 49.2464 180.649 49.164C181.047 49.164 181.428 49.3221 181.71 49.6034C181.991 49.8847 182.149 50.2662 182.149 50.664C182.149 51.0619 181.991 51.4434 181.71 51.7247C181.428 52.006 181.047 52.164 180.649 52.164C179.253 52.164 177.888 52.5781 176.727 53.3539C175.566 54.1296 174.661 55.2322 174.126 56.5223C173.592 57.8123 173.452 59.2319 173.725 60.6014C173.997 61.9709 174.669 63.2289 175.657 64.2162C176.644 65.2036 177.902 65.876 179.272 66.1484C180.641 66.4208 182.061 66.281 183.351 65.7466C184.641 65.2123 185.743 64.3074 186.519 63.1464C187.295 61.9853 187.709 60.6204 187.709 59.224C187.709 58.8262 187.867 58.4447 188.148 58.1634C188.43 57.8821 188.811 57.724 189.209 57.724C189.607 57.724 189.988 57.8821 190.27 58.1634C190.551 58.4447 190.709 58.8262 190.709 59.224C190.704 61.8896 189.642 64.4443 187.756 66.3281C185.87 68.212 183.314 69.2714 180.649 69.274Z" fill="#263238"/>
<path d="M180.419 65.124C171.229 65.124 170.719 45.264 170.719 41.284V41.164C170.719 37.164 171.179 17.164 180.419 17.164C189.659 17.164 190.289 38.704 190.339 41.164L182.339 41.314C182.324 36.6856 181.65 32.0828 180.339 27.644C179.166 32.0387 178.617 36.5765 178.709 41.124V41.244C178.621 45.8354 179.193 50.4157 180.409 54.844C180.509 54.554 180.599 54.234 180.699 53.844L181.329 51.674L186.909 53.304C187.186 53.3844 187.444 53.5187 187.668 53.699C187.893 53.8793 188.08 54.1022 188.218 54.3548C188.357 54.6075 188.444 54.885 188.475 55.1714C188.506 55.4579 188.48 55.7476 188.399 56.024C186.759 62.034 184.069 65.124 180.419 65.124Z" fill="#BFBFBF" stroke="#263238" stroke-linecap="round" stroke-linejoin="round"/>
<path d="M189.209 60.724C188.811 60.724 188.43 60.566 188.148 60.2847C187.867 60.0034 187.709 59.6219 187.709 59.224C187.706 57.3524 186.962 55.5582 185.638 54.2348C184.315 52.9113 182.521 52.1667 180.649 52.164C180.251 52.164 179.87 52.006 179.588 51.7247C179.307 51.4434 179.149 51.0619 179.149 50.664C179.149 50.2662 179.307 49.8847 179.588 49.6034C179.87 49.3221 180.251 49.164 180.649 49.164C183.316 49.1667 185.873 50.2274 187.759 52.1135C189.646 53.9995 190.706 56.5568 190.709 59.224C190.709 59.6219 190.551 60.0034 190.27 60.2847C189.988 60.566 189.607 60.724 189.209 60.724V60.724Z" fill="#263238"/>
<path d="M228.059 69.274C225.447 69.1917 222.97 68.0962 221.151 66.2195C219.333 64.3428 218.316 61.8322 218.316 59.219C218.316 56.6059 219.333 54.0952 221.151 52.2186C222.97 50.3419 225.447 49.2464 228.059 49.164C228.457 49.164 228.838 49.3221 229.12 49.6034C229.401 49.8847 229.559 50.2662 229.559 50.664C229.559 51.0619 229.401 51.4434 229.12 51.7247C228.838 52.006 228.457 52.164 228.059 52.164C226.663 52.164 225.298 52.5781 224.137 53.3539C222.976 54.1296 222.071 55.2322 221.536 56.5223C221.002 57.8123 220.862 59.2319 221.135 60.6014C221.407 61.9709 222.079 63.2289 223.067 64.2162C224.054 65.2036 225.312 65.876 226.682 66.1484C228.051 66.4208 229.471 66.281 230.761 65.7466C232.051 65.2123 233.153 64.3074 233.929 63.1464C234.705 61.9853 235.119 60.6204 235.119 59.224C235.119 58.8262 235.277 58.4447 235.558 58.1634C235.84 57.8821 236.221 57.724 236.619 57.724C237.017 57.724 237.398 57.8821 237.68 58.1634C237.961 58.4447 238.119 58.8262 238.119 59.224C238.114 61.8896 237.052 64.4443 235.166 66.3281C233.28 68.212 230.724 69.2714 228.059 69.274Z" fill="#263238"/>
<path d="M227.819 65.124C218.629 65.124 218.129 45.264 218.119 41.284V41.164C218.119 37.164 218.589 17.164 227.819 17.164C237.049 17.164 237.699 38.704 237.739 41.164L229.739 41.314C229.723 36.6857 229.049 32.083 227.739 27.644C226.568 32.0524 226.026 36.604 226.129 41.164V41.284C226.04 45.8557 226.613 50.4162 227.829 54.824C227.919 54.534 228.019 54.214 228.109 53.824L228.749 51.654L234.319 53.284C234.596 53.3644 234.854 53.4987 235.078 53.679C235.303 53.8593 235.49 54.0822 235.628 54.3348C235.767 54.5875 235.854 54.865 235.885 55.1514C235.916 55.4379 235.89 55.7276 235.809 56.004V56.004C234.129 62.034 231.479 65.124 227.819 65.124Z" fill="#BFBFBF" stroke="#263238" stroke-linecap="round" stroke-linejoin="round"/>
<path d="M236.619 60.724C236.221 60.724 235.84 60.566 235.558 60.2847C235.277 60.0034 235.119 59.6219 235.119 59.224C235.116 57.3524 234.372 55.5582 233.048 54.2348C231.725 52.9113 229.931 52.1667 228.059 52.164C227.661 52.164 227.28 52.006 226.998 51.7247C226.717 51.4434 226.559 51.0619 226.559 50.664C226.559 50.2662 226.717 49.8847 226.998 49.6034C227.28 49.3221 227.661 49.164 228.059 49.164C230.728 49.164 233.288 50.2236 235.176 52.1099C237.064 53.9963 238.126 56.555 238.129 59.224C238.126 59.6228 237.966 60.0043 237.683 60.2853C237.4 60.5663 237.018 60.724 236.619 60.724V60.724Z" fill="#263238"/>
<path d="M275.469 69.274C274.122 69.3165 272.78 69.0879 271.523 68.6017C270.266 68.1155 269.119 67.3817 268.151 66.4438C267.183 65.5059 266.414 64.3831 265.888 63.142C265.363 61.9009 265.092 60.5668 265.092 59.219C265.092 57.8712 265.363 56.5372 265.888 55.2961C266.414 54.055 267.183 52.9322 268.151 51.9943C269.119 51.0564 270.266 50.3226 271.523 49.8364C272.78 49.3502 274.122 49.1215 275.469 49.164C275.867 49.164 276.248 49.3221 276.53 49.6034C276.811 49.8847 276.969 50.2662 276.969 50.664C276.969 51.0619 276.811 51.4434 276.53 51.7247C276.248 52.006 275.867 52.164 275.469 52.164C274.072 52.162 272.706 52.5744 271.544 53.349C270.382 54.1235 269.475 55.2255 268.939 56.5153C268.403 57.8052 268.262 59.2251 268.533 60.5952C268.805 61.9654 269.476 63.2243 270.463 64.2127C271.45 65.201 272.708 65.8744 274.078 66.1476C275.448 66.4209 276.868 66.2816 278.158 65.7476C279.449 65.2135 280.552 64.3086 281.328 63.1474C282.105 61.9862 282.519 60.6208 282.519 59.224C282.519 58.8262 282.677 58.4447 282.958 58.1634C283.24 57.8821 283.621 57.724 284.019 57.724C284.417 57.724 284.798 57.8821 285.08 58.1634C285.361 58.4447 285.519 58.8262 285.519 59.224C285.516 61.8886 284.457 64.4434 282.572 66.3275C280.688 68.2117 278.134 69.2714 275.469 69.274V69.274Z" fill="#263238"/>
<path d="M275.229 65.124C266.039 65.124 265.539 45.264 265.529 41.284V41.164C265.529 37.164 265.999 17.164 275.229 17.164C284.459 17.164 285.129 38.744 285.129 41.204L277.129 41.354C277.108 36.726 276.434 32.1241 275.129 27.684C273.946 32.0769 273.394 36.6157 273.489 41.164V41.284C273.414 45.8635 273.997 50.43 275.219 54.844C275.319 54.554 275.409 54.234 275.509 53.844L276.139 51.674L281.719 53.304C281.996 53.3844 282.254 53.5187 282.478 53.699C282.703 53.8793 282.89 54.1022 283.028 54.3548C283.167 54.6075 283.254 54.885 283.285 55.1714C283.316 55.4579 283.29 55.7476 283.209 56.024V56.024C281.569 62.034 278.879 65.124 275.229 65.124Z" fill="#BFBFBF" stroke="#263238" stroke-linecap="round" stroke-linejoin="round"/>
<path d="M284.019 60.724C283.621 60.724 283.24 60.566 282.958 60.2847C282.677 60.0034 282.519 59.6219 282.519 59.224C282.519 57.3533 281.776 55.5591 280.455 54.2354C279.133 52.9117 277.34 52.1667 275.469 52.164C275.071 52.164 274.69 52.006 274.408 51.7247C274.127 51.4434 273.969 51.0619 273.969 50.664C273.969 50.2662 274.127 49.8847 274.408 49.6034C274.69 49.3221 275.071 49.164 275.469 49.164C278.134 49.1693 280.689 50.2312 282.573 52.117C284.457 54.0027 285.516 56.5585 285.519 59.224C285.519 59.6219 285.361 60.0034 285.08 60.2847C284.798 60.566 284.417 60.724 284.019 60.724Z" fill="#263238"/>
<path d="M327.651 293.768C332.296 273.568 319.686 253.427 299.486 248.782C279.286 244.137 259.145 256.747 254.5 276.947C249.855 297.147 262.465 317.288 282.665 321.933C302.865 326.578 323.006 313.968 327.651 293.768Z" fill="#5FB3B3" stroke="#263238" stroke-miterlimit="10"/>
<path d="M312.979 285.374C312.98 285.834 312.891 286.29 312.715 286.715C312.54 287.14 312.282 287.527 311.957 287.852C311.631 288.177 311.245 288.435 310.82 288.61C310.395 288.786 309.939 288.875 309.479 288.874H294.589V303.774C294.589 304.702 294.22 305.593 293.564 306.249C292.907 306.905 292.017 307.274 291.089 307.274C290.161 307.274 289.27 306.905 288.614 306.249C287.958 305.593 287.589 304.702 287.589 303.774V288.844H272.699C271.771 288.844 270.88 288.475 270.224 287.819C269.568 287.163 269.199 286.272 269.199 285.344C269.199 284.416 269.568 283.526 270.224 282.869C270.88 282.213 271.771 281.844 272.699 281.844H287.589V266.984C287.589 266.056 287.958 265.166 288.614 264.509C289.27 263.853 290.161 263.484 291.089 263.484C292.017 263.484 292.907 263.853 293.564 264.509C294.22 265.166 294.589 266.056 294.589 266.984V281.844H309.479C309.941 281.844 310.399 281.936 310.825 282.113C311.252 282.291 311.639 282.552 311.964 282.88C312.29 283.208 312.547 283.597 312.721 284.025C312.895 284.454 312.983 284.912 312.979 285.374V285.374Z" fill="white"/>
<path d="M111.129 162.644C111.129 162.644 114.209 180.344 113.619 182.544C113.029 184.103 111.984 185.448 110.619 186.404L117.519 202.804V189.974C117.519 189.974 119.419 160.274 119.649 146.974C119.747 140.372 119.49 133.769 118.879 127.194L115.609 127.724C115.609 127.724 111.859 155.514 111.129 162.644Z" fill="white" stroke="#263238" stroke-linecap="round" stroke-linejoin="round"/>
<path d="M96.7089 377.764L94.7889 363.644L82.0389 362.644L83.5289 378.074C85.4055 379.594 87.7615 380.398 90.1758 380.341C92.5902 380.284 94.9058 379.371 96.7089 377.764V377.764Z" fill="white" stroke="#263238" stroke-linecap="round" stroke-linejoin="round"/>
<path d="M82.6989 376.284C82.2789 379.764 81.8689 383.424 82.8689 386.754C83.8689 390.084 86.7989 392.894 89.6789 392.074C90.3389 391.894 90.9689 391.524 91.6789 391.404C92.9589 391.184 94.2189 391.864 95.4189 392.454C102.699 396.044 121.679 394.504 123.179 393.714C123.612 393.454 123.964 393.078 124.196 392.63C124.428 392.181 124.531 391.677 124.494 391.173C124.456 390.67 124.28 390.186 123.984 389.777C123.689 389.367 123.285 389.048 122.819 388.854C114.109 384.724 114.669 385.764 100.289 377.614C97.7089 376.154 96.1789 376.854 94.8789 378.194C94.0258 379.029 92.9894 379.654 91.8522 380.017C90.715 380.381 89.5086 380.473 88.3292 380.288C87.1498 380.102 86.0302 379.644 85.0595 378.948C84.0889 378.253 83.2942 377.341 82.7389 376.284H82.6989Z" fill="#263238"/>
<path d="M95.8689 345.844C89.3589 353.934 81.2089 364.294 81.2089 364.294L75.3289 351.634C75.3289 351.634 88.9889 335.414 95.9989 318.304C95.9989 321.654 96.2689 325.304 96.3589 327.394C96.5989 333.714 95.9689 339.554 95.8689 345.844Z" fill="#263238"/>
<path d="M82.0489 380.114C82.0187 380.648 81.807 381.156 81.4489 381.554C80.3289 382.554 79.0889 380.744 78.1489 379.554C75.2598 375.713 72.6561 371.666 70.3589 367.444L69.6289 360.934L67.4889 361.824H67.2189L66.5989 360.734C61.8589 352.454 67.5189 350.844 73.5489 351.114C74.2389 351.114 75.6789 351.294 77.9989 355.744C78.6228 356.771 79.1806 357.836 79.6689 358.934C82.3578 365.65 83.1801 372.969 82.0489 380.114V380.114Z" fill="#263238"/>
<path d="M119.279 209.714C119.055 206.122 119.022 202.52 119.179 198.924C119.245 196.12 118.661 193.339 117.475 190.798C116.288 188.257 114.531 186.024 112.339 184.274C112.339 184.274 107.099 191.274 92.1289 191.274H91.3789C84.7118 191.113 78.1004 190.016 71.7389 188.014C69.0425 187.17 66.3979 186.168 63.8189 185.014C63.8189 185.014 64.1189 205.014 64.7489 223.604C65.2889 238.354 69.0889 304.604 71.4889 325.684C73.4889 343.244 79.4289 360.584 80.1389 368.074C80.4789 371.604 88.4489 370.504 92.2589 369.144C97.2589 367.354 97.6089 366.294 97.6089 366.294C97.9389 360.854 96.4889 351.294 96.6089 345.884C110.249 328.884 131.469 301.984 132.069 297.834C136.699 265.594 119.779 213.054 119.279 209.714ZM106.229 292.714C105.879 294.894 101.349 306.314 96.2289 318.784C96.2289 313.264 98.6689 307.514 99.3889 298.604C100.759 281.464 97.2789 262.604 97.7689 248.834C100.539 260.674 106.869 288.624 106.229 292.674V292.714Z" fill="#263238"/>
<path d="M127.639 302.904C125.456 304.762 122.908 306.142 120.159 306.954" stroke="#FAC863" stroke-linecap="round" stroke-linejoin="round"/>
<path d="M130.699 299.674C130.269 300.242 129.808 300.786 129.319 301.304" stroke="#FAC863" stroke-linecap="round" stroke-linejoin="round"/>
<path d="M100.859 197.364C102.229 204.654 102.449 214.504 99.4589 221.284C98.7122 222.445 97.8218 223.507 96.8089 224.444" stroke="#FAC863" stroke-linecap="round" stroke-linejoin="round"/>
<path d="M77.2389 196.584C76.4289 200.084 74.9689 205.854 73.0689 208.904C71.2462 212.054 68.2517 214.354 64.7389 215.304" stroke="#FAC863" stroke-linecap="round" stroke-linejoin="round"/>
<path d="M95.6989 203.964C96.7489 215.784 96.6989 227.254 97.8289 247.124" stroke="#FAC863" stroke-linecap="round" stroke-linejoin="round"/>
<path d="M95.0589 197.844C95.1689 198.784 95.2789 199.714 95.3789 200.634" stroke="white" stroke-linecap="round" stroke-linejoin="round"/>
<path d="M106.279 289.484C106.96 294.352 108.338 299.097 110.369 303.574" stroke="#FAC863" stroke-linecap="round" stroke-linejoin="round"/>
<path d="M107.129 294.064C106.251 301.002 106.634 308.042 108.259 314.844" stroke="#FAC863" stroke-linecap="round" stroke-linejoin="round"/>
<path d="M67.8189 214.104C69.6489 241.364 72.1889 262.104 74.2189 282.804" stroke="#FAC863" stroke-linecap="round" stroke-linejoin="round"/>
<path d="M74.2889 289.994C74.2889 289.144 74.2889 288.274 74.2889 287.404" stroke="#FAC863" stroke-linecap="round" stroke-linejoin="round"/>
<path d="M85.9889 369.964C84.5789 365.594 74.8389 331.964 74.3789 318.014C74.0689 308.764 73.6989 302.174 74.1689 293.234" stroke="#FAC863" stroke-linecap="round" stroke-linejoin="round"/>
<path d="M97.0389 315.634L96.6889 345.744" stroke="#FAC863" stroke-linecap="round" stroke-linejoin="round"/>
<path d="M116.849 108.464C114.509 96.4641 106.539 94.9041 104.729 94.3341C92.2589 90.4041 83.7289 89.7441 73.8689 94.0641C62.3189 99.1441 59.9989 99.3241 56.4389 112.504C54.4389 119.714 58.3689 143.994 60.7089 154.564C62.5789 162.974 62.1089 184.764 65.7089 188.254C72.3889 194.724 81.8589 193.794 91.0189 192.174C98.9489 190.764 112.189 188.884 115.199 181.414C115.629 180.344 115.589 175.824 115.439 169.304C114.959 149.574 116.279 138.254 116.079 125.624L118.759 124.384C118.759 124.384 118.989 119.394 116.849 108.464Z" fill="#5FB3B3"/>
<path opacity="0.2" d="M59.1289 134.124C59.4789 138.204 58.1289 142.584 59.8989 146.254C60.3656 147.295 61.1309 148.173 62.0975 148.779C63.0642 149.384 64.1888 149.689 65.3289 149.654C66.7489 149.504 68.0889 148.654 69.5089 148.814C71.3289 149.004 72.5789 150.674 73.6489 152.164C75.8865 155.614 78.7529 158.613 82.0989 161.004C85.5289 163.254 89.8889 164.384 93.8189 163.204C92.7806 164.903 91.6103 166.518 90.3189 168.034C92.4989 167.224 97.3189 163.714 101.539 163.694L115.009 163.604C115.879 160.784 113.859 157.694 111.179 156.444C108.499 155.194 105.399 155.354 102.469 155.754C99.5389 156.154 96.5789 156.754 93.6589 156.354C89.748 155.616 86.2258 153.515 83.7189 150.424C81.244 147.348 79.1396 143.992 77.4489 140.424C76.7189 141.804 74.6989 141.974 73.3389 141.224C72.0541 140.34 70.9816 139.183 70.1989 137.834C67.5289 134.064 62.4189 127.784 57.7089 126.764C56.9289 128.774 58.9389 131.904 59.1289 134.124Z" fill="black"/>
<path opacity="0.2" d="M100.539 154.154C105.759 152.154 109.259 146.974 110.769 141.574C111.669 138.314 113.699 129.364 111.439 126.574C109.749 131.264 108.579 136.124 106.749 140.784C105.809 143.164 104.809 145.514 103.749 147.784C103.209 148.894 101.639 153.724 100.539 154.154Z" fill="black"/>
<path opacity="0.2" d="M62.8289 169.374C66.1789 177.444 73.8989 183.174 82.2789 185.644C90.6589 188.114 100.419 188.024 109.009 186.404C97.9389 192.674 83.2589 193.284 71.4089 188.654C69.2789 187.824 67.1589 188.784 65.5889 187.114C61.9889 183.294 62.1489 175.394 62.5889 170.114L60.5889 170.204" fill="black"/>
<path opacity="0.2" d="M84.8589 106.244C85.2392 106.815 85.804 107.239 86.4589 107.444C86.8408 107.482 87.2261 107.42 87.5768 107.264C87.9275 107.108 88.2315 106.863 88.4589 106.554C88.9125 105.925 89.3074 105.255 89.6389 104.554C90.5926 102.859 92.0697 101.519 93.8489 100.734C94.8151 103.057 96.2756 105.142 98.1289 106.844H98.7489C99.7168 104.515 99.9911 101.956 99.5389 99.474C99.4533 99.7923 99.3012 100.089 99.0927 100.344C98.8841 100.599 98.6237 100.807 98.3289 100.954C97.859 99.94 97.2387 99.0028 96.4889 98.174C96.1095 97.7636 95.6433 97.4429 95.1243 97.2354C94.6054 97.0278 94.0467 96.9385 93.4889 96.974C93.0174 97.0496 92.5614 97.2016 92.1389 97.424C89.3589 98.774 87.3989 101.424 85.9289 104.094C83.8623 102.576 81.7086 101.18 79.4789 99.914C81.1289 102.054 83.0489 104.124 84.8589 106.244Z" fill="black"/>
<path d="M116.849 108.464C114.509 96.4641 106.539 94.9041 104.729 94.3341C92.2589 90.4041 83.7289 89.7441 73.8689 94.0641C62.3189 99.1441 59.9989 99.3241 56.4389 112.504C54.4389 119.714 58.3689 143.994 60.7089 154.564C62.5789 162.974 62.1089 184.764 65.7089 188.254C72.3889 194.724 81.8589 193.794 91.0189 192.174C98.9489 190.764 112.189 188.884 115.199 181.414C115.629 180.344 115.589 175.824 115.439 169.304C114.959 149.574 116.279 138.254 116.079 125.624L118.759 124.384C118.759 124.384 118.989 119.394 116.849 108.464Z" stroke="#263238" stroke-miterlimit="10"/>
<path d="M96.3689 91.674C97.8699 91.672 99.3342 91.2097 100.564 90.3497C101.795 89.4896 102.732 88.2731 103.249 86.864C104.689 82.864 105.359 70.124 105.359 67.804C105.359 65.484 103.529 60.804 103.159 58.144C102.789 55.484 101.159 49.944 101.159 49.944L96.3089 45.264L89.6389 48.084L80.1989 49.334C80.1989 49.334 78.4389 64.644 76.0289 62.184C73.6189 59.724 66.3389 62.884 66.7889 68.684C67.2389 74.484 74.6589 74.404 74.6589 74.404C74.6589 74.404 76.4989 76.214 77.5989 82.244C78.287 85.9941 78.3107 89.8358 77.6689 93.594C78.858 95.0562 80.4003 96.1909 82.1502 96.8908C83.9 97.5908 85.7994 97.8328 87.6689 97.594C94.0589 96.784 94.6689 92.444 94.6689 92.444C94.6689 92.444 94.7489 91.714 96.3689 91.674Z" fill="white"/>
<path d="M74.7689 65.9341C73.3489 63.9341 68.2489 60.6941 67.0089 67.4741C65.7689 74.2541 72.5389 73.8241 76.0889 74.6641C78.7489 79.0941 84.0889 86.5341 88.5889 88.8641C91.3789 90.3141 94.8689 91.9941 98.1589 91.6141C101.449 91.2341 102.759 89.2641 103.399 86.1541C104.285 81.9788 104.863 77.7441 105.129 73.4841C105.289 70.7741 105.759 67.1441 104.659 64.5741C103.079 60.8641 103.419 56.5741 102.209 52.7841C100.999 48.9941 97.7189 46.2141 94.6789 43.7841" stroke="#263238" stroke-linecap="round" stroke-linejoin="round"/>
<path d="M86.9589 63.454C89.0389 62.164 90.8489 61.604 92.5989 63.454C93.0889 63.454 94.2189 61.454 94.2189 61.454C93.7027 60.8248 93.0068 60.3681 92.2242 60.1447C91.4416 59.9214 90.6094 59.9421 89.8389 60.204C86.7889 60.944 86.9589 63.454 86.9589 63.454Z" fill="#263238"/>
<path d="M91.5889 78.5041C93.0189 80.5641 94.5389 81.1941 97.2189 80.9641" stroke="#263238" stroke-linecap="round" stroke-linejoin="round"/>
<path d="M90.5589 66.614C91.0189 66.614 91.4689 67.3041 91.5589 68.2541C91.6489 69.2041 91.3289 70.004 90.8589 70.034C90.3889 70.064 89.9489 69.3341 89.8589 68.3941C89.7689 67.4541 90.1289 66.654 90.5589 66.614Z" fill="#263238"/>
<path d="M100.699 65.274C101.179 65.274 101.629 65.954 101.699 66.904C101.769 67.854 101.479 68.664 100.999 68.704C100.519 68.744 100.079 68.004 99.9989 67.064C99.9189 66.124 100.229 65.324 100.699 65.274Z" fill="#263238"/>
<path d="M99.5789 62.3541C99.5789 62.3541 101.879 61.2341 102.799 62.0441C102.799 62.0441 103.459 59.7541 101.719 59.2241C101.285 59.0436 100.799 59.0306 100.355 59.1876C99.9121 59.3446 99.5428 59.6605 99.3189 60.0741L99.3889 62.5441L99.5789 62.3541Z" fill="#263238"/>
<path d="M94.8089 91.4741C94.8689 91.4741 94.3789 95.2841 92.8089 96.3541C91.7587 97.2766 90.4067 97.7818 89.0089 97.7741C85.7789 98.0541 79.3889 96.3641 77.6989 93.5941C78.3197 90.8605 78.4181 88.0342 77.9889 85.2641C77.6989 81.6747 77.0489 78.1235 76.0489 74.6641C76.0489 74.6641 84.4189 90.2341 94.8089 91.4741Z" stroke="#263238" stroke-linecap="round" stroke-linejoin="round"/>
<path d="M78.4689 90.7241C76.2689 91.2441 74.4689 91.3641 73.9889 92.8741C73.6689 93.8741 74.3989 94.7541 75.1789 95.5841C78.4217 98.947 82.1579 101.796 86.2589 104.034C88.058 101.325 90.2677 98.913 92.8089 96.884C88.0574 95.9654 83.5467 94.076 79.5589 91.3341L78.4689 90.7241Z" fill="white" stroke="#263238" stroke-linecap="round" stroke-linejoin="round"/>
<path d="M94.8689 91.774C95.513 91.789 96.1445 91.9552 96.7125 92.2592C97.2805 92.5632 97.7691 92.9965 98.1389 93.524C99.0789 94.594 99.8389 98.984 98.8789 101.774C96.7389 99.294 95.4189 95.5441 92.3289 96.5141C94.7489 95.7541 94.8689 91.774 94.8689 91.774Z" fill="white" stroke="#263238" stroke-linecap="round" stroke-linejoin="round"/>
<path d="M78.1289 77.8441C78.1289 77.8441 82.1889 92.7841 86.7989 94.2041C88.1542 94.5857 89.5907 94.5689 90.9367 94.1557C92.2827 93.7425 93.4812 92.9504 94.3889 91.8741C85.8789 89.0941 78.1289 77.8441 78.1289 77.8441Z" fill="#263238"/>
<path d="M81.9789 60.644C79.1689 62.354 77.2289 67.474 79.2489 70.154C81.2689 72.834 79.1889 74.424 78.2489 75.334C77.5325 73.9053 76.9079 72.4323 76.3789 70.924C75.7689 69.144 75.8289 67.584 74.8289 65.994C74.2789 65.114 71.7389 63.704 70.7289 63.434C69.2389 63.034 67.7289 64.644 67.2489 66.114C66.9059 67.6278 66.9541 69.204 67.3889 70.694C65.3889 68.544 65.2289 67.944 65.0289 65.044C65.0511 63.4611 64.9777 61.8782 64.8089 60.304C64.4889 58.664 63.6589 57.144 63.4389 55.494C63.0589 52.584 64.6089 49.814 66.1089 47.294C67.4195 44.7915 69.1323 42.5213 71.1789 40.574C73.081 39.0797 75.2255 37.9229 77.5189 37.154C82.6389 35.224 88.1789 34.004 93.5889 34.824C98.9989 35.644 104.269 38.824 106.589 43.724C107.476 45.3693 107.743 47.2788 107.339 49.104C107.078 50.0233 106.577 50.8567 105.888 51.5187C105.199 52.1807 104.346 52.6475 103.417 52.8714C102.488 53.0953 101.516 53.0681 100.601 52.7927C99.6855 52.5173 98.8601 52.0035 98.2089 51.304C99.3227 51.5829 100.499 51.4699 101.539 50.984C102.052 50.7322 102.487 50.3465 102.798 49.8677C103.11 49.3889 103.286 48.8348 103.309 48.264C103.287 47.8876 103.184 47.5202 103.007 47.1874C102.829 46.8546 102.582 46.5641 102.282 46.336C101.982 46.1079 101.635 45.9476 101.267 45.8661C100.899 45.7847 100.517 45.7839 100.149 45.864C99.7955 45.9911 99.4763 46.198 99.216 46.4687C98.9556 46.7393 98.7613 47.0664 98.6481 47.4245C98.5349 47.7825 98.5058 48.1618 98.5632 48.5329C98.6206 48.9041 98.7628 49.2569 98.9789 49.564L97.2489 48.694L97.0589 49.844L95.0589 48.434L94.9089 49.434C93.9889 49.064 87.5289 49.434 85.3189 49.674C84.2109 49.782 83.1158 49.9963 82.0489 50.314C80.8489 50.674 80.5089 50.794 80.2889 52.054C79.6689 55.684 78.8989 58.614 81.9789 60.644Z" fill="#263238"/>
<path d="M82.7489 42.744C82.5614 42.9154 82.4158 43.1275 82.3232 43.364C82.2306 43.6005 82.1935 43.8551 82.2148 44.1081C82.236 44.3612 82.3151 44.606 82.4458 44.8238C82.5766 45.0415 82.7555 45.2263 82.9689 45.364" stroke="#FAC863" stroke-linecap="round" stroke-linejoin="round"/>
<path d="M84.7789 43.1841C84.6525 43.3698 84.5849 43.5894 84.5849 43.8141C84.5849 44.0388 84.6525 44.2583 84.7789 44.4441" stroke="#FAC863" stroke-linecap="round" stroke-linejoin="round"/>
<path d="M86.8689 43.174C86.7589 43.584 86.6389 44.004 86.5189 44.414" stroke="#FAC863" stroke-linecap="round" stroke-linejoin="round"/>
<path d="M92.1289 42.1541C91.7281 42.4596 91.4281 42.8782 91.2677 43.356C91.1072 43.8337 91.0937 44.3486 91.2289 44.8341" stroke="#FAC863" stroke-linecap="round" stroke-linejoin="round"/>
<path d="M93.5089 45.034C93.4432 44.3926 93.6174 43.7495 93.9978 43.2288C94.3781 42.7081 94.9378 42.3466 95.5689 42.2141" stroke="#FAC863" stroke-linecap="round" stroke-linejoin="round"/>
<path d="M95.4189 45.244C95.8542 44.338 96.5346 43.572 97.3829 43.033C98.2313 42.4939 99.2138 42.2033 100.219 42.194" stroke="#FAC863" stroke-linecap="round" stroke-linejoin="round"/>
<path d="M97.0689 46.124C97.4126 45.5331 97.889 45.0301 98.4605 44.6549C99.032 44.2797 99.6828 44.0424 100.362 43.9619C101.041 43.8814 101.729 43.9599 102.372 44.1911C103.016 44.4222 103.597 44.7998 104.069 45.294" stroke="#FAC863" stroke-linecap="round" stroke-linejoin="round"/>
<path d="M77.2689 44.6541C77.135 44.8537 77.0468 45.0804 77.0108 45.3181C76.9748 45.5558 76.9919 45.7985 77.0607 46.0288C77.1295 46.2591 77.2484 46.4714 77.4089 46.6504C77.5693 46.8294 77.7674 46.9706 77.9889 47.0641" stroke="#FAC863" stroke-linecap="round" stroke-linejoin="round"/>
<path d="M80.2589 41.6541C79.6763 42.6215 79.4735 43.7707 79.6896 44.8791C79.9058 45.9876 80.5255 46.9764 81.4289 47.6541" stroke="#FAC863" stroke-linecap="round" stroke-linejoin="round"/>
<path d="M74.7089 46.3441C74.6553 46.5084 74.6399 46.6828 74.6637 46.8541C74.6875 47.0253 74.7499 47.1889 74.8463 47.3324C74.9426 47.476 75.0703 47.5957 75.2198 47.6826C75.3692 47.7696 75.5365 47.8213 75.7089 47.8341" stroke="#FAC863" stroke-linecap="round" stroke-linejoin="round"/>
<path d="M72.4289 47.764C72.3712 47.984 72.399 48.2177 72.5066 48.4181C72.6142 48.6184 72.7936 48.7706 73.0089 48.844" stroke="#FAC863" stroke-linecap="round" stroke-linejoin="round"/>
<path d="M70.4089 49.1841C70.3859 49.2463 70.3767 49.3128 70.3818 49.3789C70.387 49.445 70.4064 49.5093 70.4387 49.5672C70.471 49.6252 70.5154 49.6754 70.569 49.7146C70.6225 49.7537 70.6839 49.7808 70.7489 49.7941" stroke="#FAC863" stroke-linecap="round" stroke-linejoin="round"/>
<path d="M112.009 123.434C112.499 140.624 110.439 158.604 90.0089 168.114" stroke="#263238" stroke-linecap="round" stroke-linejoin="round"/>
<path d="M81.6389 175.954C90.5407 178.385 99.8331 179.044 108.989 177.894" stroke="#263238" stroke-linecap="round" stroke-linejoin="round"/>
<path d="M74.5889 173.624C75.7589 174.074 76.9389 174.504 78.1289 174.894" stroke="#263238" stroke-linecap="round" stroke-linejoin="round"/>
<path d="M182.429 150.644C182.466 150.222 182.402 149.797 182.241 149.404C182.08 149.012 181.827 148.664 181.504 148.39C181.18 148.115 180.796 147.923 180.383 147.828C179.97 147.733 179.54 147.738 179.129 147.844C179.129 147.944 178.909 147.974 178.929 148.064C179.702 148.669 180.307 149.46 180.689 150.364C181.269 150.404 181.849 150.624 182.429 150.644Z" stroke="#263238" stroke-linecap="round" stroke-linejoin="round"/>
<path d="M181.369 152.414C180.719 150.556 179.792 148.806 178.619 147.224C174.949 144.404 176.549 143.494 169.439 142.224C169.439 142.304 155.699 145.774 148.219 149.224C148.219 149.224 99.0289 143.404 99.0289 142.934L91.4289 132.934L70.0389 136.264C70.0389 136.264 81.4489 154.794 90.0389 159.544C90.0389 159.544 131.039 158.544 144.339 158.474C151.569 158.474 155.629 162.154 162.739 154.204C162.739 154.204 166.619 158.034 168.929 156.934C170.449 156.514 165.509 152.354 163.819 150.994C164.359 151.304 171.959 156.554 176.189 156.704C176.39 156.714 176.589 156.658 176.755 156.543C176.92 156.428 177.043 156.261 177.104 156.069C177.164 155.877 177.159 155.67 177.09 155.481C177.02 155.292 176.89 155.131 176.719 155.024C176.719 155.024 166.199 149.124 166.719 148.374C166.719 148.374 172.549 150.474 173.479 151.764C177.369 157.104 179.999 155.234 180.369 154.914C181.129 154.254 180.069 153.654 180.069 153.034C179.989 153.044 181.549 153.494 181.369 152.414Z" fill="white" stroke="#263238" stroke-linecap="round" stroke-linejoin="round"/>
<path d="M170.319 145.774C172.399 146.594 175.319 147.894 176.709 149.644C179.409 153.044 179.989 153.044 179.989 153.044" stroke="#263238" stroke-linecap="round" stroke-linejoin="round"/>
<path d="M61.3689 101.044C61.3689 101.044 54.7489 107.044 56.6189 122.904C57.6189 130.984 67.3089 144.404 67.3089 144.404L93.6789 136.034C93.6789 136.034 87.4489 121.954 80.8489 112.444" stroke="#263238" stroke-miterlimit="10"/>
<path d="M85.1289 112.154C86.8403 116.101 87.8195 120.327 88.0189 124.624" stroke="#263238" stroke-linecap="round" stroke-linejoin="round"/>
<path d="M99.9889 61.764C99.9889 61.824 97.4289 65.764 98.2289 66.864C101.409 71.044 101.849 75.984 100.459 76.214C98.6189 76.504 97.2489 75.024 96.4589 74.484" stroke="#263238" stroke-linecap="round" stroke-linejoin="round"/>
<path d="M59.4689 138.704L64.6889 145.244L93.6889 136.034L90.1289 128.724C90.1289 128.724 58.9289 138.704 59.4689 138.704Z" fill="white" stroke="#263238" stroke-linecap="round" stroke-linejoin="round"/>
<path d="M94.2189 97.004C94.2189 96.834 97.7789 116.074 97.7789 116.074L95.4089 116.624" stroke="#263238" stroke-linecap="round" stroke-linejoin="round"/>
<path d="M116.129 122.474L119.939 121.064L120.179 127.004L116.059 128.534L116.129 122.474Z" fill="white" stroke="#263238" stroke-linecap="round" stroke-linejoin="round"/>
<path d="M114.029 112.144C115.079 117.5 115.781 122.918 116.129 128.364Z" fill="white"/>
<path d="M114.029 112.144C115.079 117.5 115.781 122.918 116.129 128.364" stroke="#263238" stroke-linecap="round" stroke-linejoin="round"/>
<path d="M112.809 105.614C113.029 106.874 113.249 108.074 113.479 109.264Z" fill="white"/>
<path d="M112.809 105.614C113.029 106.874 113.249 108.074 113.479 109.264" stroke="#263238" stroke-linecap="round" stroke-linejoin="round"/>
</svg>
