<svg width="469" height="453" viewBox="0 0 469 453" fill="none" xmlns="http://www.w3.org/2000/svg">
<path d="M234.27 452.35C363.654 452.35 468.54 391.792 468.54 317.09C468.54 242.388 363.654 181.83 234.27 181.83C104.886 181.83 0 242.388 0 317.09C0 391.792 104.886 452.35 234.27 452.35Z" fill="#F5F5F5"/>
<path d="M423.32 363.29L345.83 318.42C345.494 318.247 345.122 318.157 344.745 318.157C344.368 318.157 343.996 318.247 343.66 318.42L272.85 359.21C272.719 359.254 272.606 359.338 272.526 359.451C272.445 359.563 272.402 359.697 272.402 359.835C272.402 359.973 272.445 360.107 272.526 360.219C272.606 360.332 272.719 360.416 272.85 360.46L350.35 405.33C350.684 405.503 351.054 405.593 351.43 405.593C351.806 405.593 352.176 405.503 352.51 405.33L423.33 364.54C423.92 364.2 423.92 363.64 423.32 363.29Z" fill="#E0E0E0"/>
<path d="M359.74 266.1L282.24 221.23C281.905 221.062 281.535 220.974 281.16 220.974C280.785 220.974 280.415 221.062 280.08 221.23L69.91 342.34C69.31 342.68 69.31 343.24 69.91 343.59L147.4 388.42C147.735 388.59 148.105 388.679 148.48 388.679C148.855 388.679 149.225 388.59 149.56 388.42L359.74 267.35C359.871 267.306 359.984 267.222 360.064 267.109C360.145 266.997 360.188 266.863 360.188 266.725C360.188 266.587 360.145 266.453 360.064 266.341C359.984 266.228 359.871 266.144 359.74 266.1Z" fill="#E0E0E0"/>
<path d="M89.29 287.89C116.126 287.89 137.88 275.332 137.88 259.84C137.88 244.348 116.126 231.79 89.29 231.79C62.4545 231.79 40.7 244.348 40.7 259.84C40.7 275.332 62.4545 287.89 89.29 287.89Z" fill="#E0E0E0"/>
<path d="M83.47 346.56C78.1647 349.152 72.2703 350.3 66.38 349.89C56.19 349.32 52.86 343.67 52.86 343.67C52.86 343.67 58.73 335.26 64.86 333.88C64.86 333.88 54.95 333.77 46.24 337.2C46.24 337.2 40.24 336 39.78 326.29C39.78 326.29 44.54 321.53 57.15 321.13C57.15 321.13 50.27 317.73 39.2 318.13C38.35 318.27 37.55 305.67 37.72 299.97C37.89 294.27 40.08 294.81 44.6 294.59C49.12 294.37 63.82 296.79 65.99 299.72C68.16 302.65 67.78 310.97 67.78 310.97C70.0378 308.014 71.6246 304.601 72.43 300.97C72.43 300.97 75.3 300.56 81.2 303.97C92.07 310.24 92.9 317.56 93.01 323.12C93.16 329.29 91.27 340.79 83.47 346.56Z" fill="#5FB3B3"/>
<path d="M83.35 347.12C83.2473 347.095 83.1531 347.043 83.0775 346.969C83.0019 346.895 82.9475 346.802 82.92 346.7C78.53 328.45 53.1 302.87 42.92 298.53C42.8511 298.5 42.7886 298.458 42.7362 298.404C42.6838 298.35 42.6425 298.287 42.6147 298.217C42.5868 298.147 42.5729 298.073 42.5739 297.998C42.5748 297.923 42.5905 297.849 42.62 297.78C42.6495 297.711 42.6924 297.649 42.7461 297.596C42.7997 297.544 42.8632 297.503 42.9329 297.475C43.0025 297.447 43.077 297.433 43.152 297.434C43.227 297.435 43.3011 297.45 43.37 297.48C53.74 301.9 79.57 327.9 84.02 346.42C84.0393 346.492 84.044 346.566 84.0337 346.64C84.0234 346.713 83.9983 346.784 83.96 346.847C83.9217 346.911 83.871 346.966 83.8108 347.01C83.7507 347.053 83.6824 347.084 83.61 347.1C83.5271 347.132 83.4368 347.139 83.35 347.12V347.12Z" fill="#FAC863"/>
<path d="M345.74 256.07C345.13 254.5 344.681 252.871 344.4 251.21C343.68 247.493 343.995 243.65 345.31 240.1C345.981 238.334 347.008 236.724 348.327 235.372C349.647 234.02 351.231 232.954 352.98 232.24C354.202 231.936 355.338 231.354 356.3 230.54C357.207 229.457 357.887 228.202 358.3 226.85C358.924 224.64 359.74 222.488 360.74 220.42C362.203 218.088 364.448 216.352 367.074 215.526C369.701 214.699 372.535 214.836 375.07 215.91C376.21 216.44 377.25 217.15 378.42 217.58C382.15 218.95 386.25 215.38 389.65 214.2C393.7 212.8 398.43 212.1 402.37 214.2C407.3 216.84 407.7 222.35 403.89 226.34C402.1 228.21 399.89 229.92 399.25 232.43C398.35 236.06 401.25 239.72 400.74 243.43C400.24 247.37 397.98 248.82 394.34 249.94L390.25 251.21C388.578 251.56 387.039 252.374 385.81 253.56C384.1 255.56 384.14 258.74 383.47 261.16C383.072 262.428 382.412 263.598 381.534 264.595C380.655 265.593 379.577 266.395 378.37 266.95C373.849 269.216 368.754 270.076 363.74 269.42C360.663 269.161 357.662 268.33 354.89 266.97C350.89 264.85 347.65 260.59 345.89 256.5L345.74 256.07Z" fill="#5FB3B3"/>
<path d="M350.3 260.42C351.48 261.09 353.48 256.74 354.06 255.93C355.53 253.84 357.06 251.82 358.71 249.85C361.646 246.302 364.824 242.96 368.22 239.85C373.325 235.111 378.932 230.944 384.94 227.42C387.397 225.926 389.972 224.635 392.64 223.56C392.788 223.504 392.908 223.391 392.974 223.247C393.039 223.103 393.045 222.939 392.99 222.79C392.964 222.716 392.924 222.648 392.872 222.59C392.819 222.532 392.756 222.486 392.685 222.453C392.614 222.42 392.537 222.402 392.459 222.4C392.381 222.398 392.303 222.411 392.23 222.44C383.57 225.71 375.51 231.7 368.66 237.78C365.056 240.979 361.684 244.431 358.57 248.11C357.35 249.54 349.02 259.31 350.22 260.31L350.3 260.42Z" fill="#FAC863"/>
<path d="M366.39 241.16H366.53C374.95 240.25 387.97 242.83 388.1 242.85C388.255 242.879 388.415 242.847 388.546 242.759C388.677 242.671 388.769 242.535 388.8 242.38C388.816 242.303 388.816 242.224 388.801 242.147C388.786 242.07 388.756 241.996 388.712 241.931C388.668 241.866 388.612 241.81 388.546 241.767C388.481 241.724 388.407 241.694 388.33 241.68C387.79 241.57 375.01 239.05 366.4 239.97C366.244 239.97 366.093 240.032 365.983 240.143C365.872 240.253 365.81 240.404 365.81 240.56C365.81 240.716 365.872 240.867 365.983 240.977C366.093 241.088 366.244 241.15 366.4 241.15L366.39 241.16Z" fill="#FAC863"/>
<path d="M370.74 237.24C370.818 237.245 370.897 237.235 370.971 237.21C371.045 237.184 371.114 237.145 371.173 237.092C371.231 237.04 371.279 236.977 371.313 236.906C371.347 236.835 371.366 236.758 371.37 236.68C371.597 232.377 371.206 228.063 370.21 223.87C370.163 223.724 370.063 223.601 369.928 223.527C369.794 223.453 369.637 223.433 369.488 223.471C369.34 223.51 369.211 223.603 369.13 223.733C369.048 223.863 369.02 224.02 369.05 224.17C370.003 228.244 370.383 232.431 370.18 236.61C370.172 236.768 370.226 236.922 370.331 237.04C370.436 237.158 370.583 237.23 370.74 237.24V237.24Z" fill="#FAC863"/>
<path d="M353.1 266.84L287.14 304.92V264.84L353.1 226.75V266.84Z" fill="#37474F"/>
<path d="M221.18 266.84L287.14 304.92V264.84L221.18 226.75V266.84Z" fill="#263238"/>
<path d="M353.1 226.75L287.14 188.67L221.18 226.75L287.14 264.84L353.1 226.75Z" fill="black"/>
<path d="M298.74 234.21C301.95 236.06 303.55 238.49 303.55 240.92V247.42C303.55 249.85 301.95 252.28 298.74 254.13C295.163 256.031 291.16 256.988 287.11 256.91V231.42C291.161 231.34 295.166 232.301 298.74 234.21V234.21Z" fill="#37474F"/>
<path d="M275.51 234.21C272.3 236.06 270.7 238.49 270.7 240.92V247.42C270.7 249.85 272.3 252.28 275.51 254.13C279.087 256.031 283.09 256.988 287.14 256.91V231.42C283.089 231.34 279.084 232.301 275.51 234.21V234.21Z" fill="#263238"/>
<path d="M275.51 234.21C269.09 237.91 269.09 243.92 275.51 247.63C281.93 251.34 292.34 251.34 298.77 247.63C305.2 243.92 305.19 237.91 298.77 234.21C292.35 230.51 281.93 230.5 275.51 234.21Z" fill="#455A64"/>
<path opacity="0.07" d="M275.51 234.21C269.09 237.91 269.09 243.92 275.51 247.63C281.93 251.34 292.34 251.34 298.77 247.63C305.2 243.92 305.19 237.91 298.77 234.21C292.35 230.51 281.93 230.5 275.51 234.21Z" fill="white"/>
<path d="M298.74 197.06C301.95 198.91 303.55 201.34 303.55 203.77V210.26C303.55 212.69 301.95 215.12 298.74 216.97C295.165 218.876 291.161 219.833 287.11 219.75V194.28C291.16 194.202 295.163 195.159 298.74 197.06V197.06Z" fill="#37474F"/>
<path d="M275.51 197.06C272.3 198.91 270.7 201.34 270.7 203.77V210.26C270.7 212.69 272.3 215.12 275.51 216.97C279.085 218.876 283.089 219.833 287.14 219.75V194.28C283.09 194.202 279.087 195.159 275.51 197.06V197.06Z" fill="#263238"/>
<path d="M275.51 197.06C269.09 200.77 269.09 206.78 275.51 210.49C281.93 214.2 292.34 214.19 298.77 210.49C305.2 206.79 305.19 200.77 298.77 197.06C292.35 193.35 281.93 193.35 275.51 197.06Z" fill="#455A64"/>
<path opacity="0.07" d="M275.51 197.06C269.09 200.77 269.09 206.78 275.51 210.49C281.93 214.2 292.34 214.19 298.77 210.49C305.2 206.79 305.19 200.77 298.77 197.06C292.35 193.35 281.93 193.35 275.51 197.06Z" fill="white"/>
<path d="M330.92 215.64C334.13 217.49 335.74 219.92 335.74 222.35V228.84C335.74 231.27 334.13 233.7 330.92 235.55C327.347 237.451 323.347 238.408 319.3 238.33V212.86C323.347 212.777 327.348 213.735 330.92 215.64V215.64Z" fill="#37474F"/>
<path d="M307.67 215.64C304.46 217.49 302.86 219.92 302.86 222.35V228.84C302.86 231.27 304.46 233.7 307.67 235.55C311.247 237.451 315.25 238.408 319.3 238.33V212.86C315.249 212.777 311.245 213.735 307.67 215.64V215.64Z" fill="#263238"/>
<path d="M307.67 215.64C301.25 219.34 301.25 225.35 307.67 229.06C314.09 232.77 324.5 232.77 330.92 229.06C337.34 225.35 337.35 219.34 330.92 215.64C324.49 211.94 314.09 211.93 307.67 215.64Z" fill="#455A64"/>
<path opacity="0.07" d="M307.67 215.64C301.25 219.34 301.25 225.35 307.67 229.06C314.09 232.77 324.5 232.77 330.92 229.06C337.34 225.35 337.35 219.34 330.92 215.64C324.49 211.94 314.09 211.93 307.67 215.64Z" fill="white"/>
<path d="M266.61 215.62C269.82 217.48 271.42 219.91 271.42 222.34V228.83C271.42 231.25 269.82 233.68 266.61 235.54C263.033 237.441 259.03 238.398 254.98 238.32V212.84C259.03 212.762 263.033 213.719 266.61 215.62V215.62Z" fill="#37474F"/>
<path d="M243.35 215.62C240.14 217.48 238.54 219.91 238.54 222.34V228.83C238.54 231.25 240.14 233.68 243.35 235.54C246.927 237.441 250.93 238.398 254.98 238.32V212.84C250.93 212.762 246.927 213.719 243.35 215.62V215.62Z" fill="#263238"/>
<path d="M243.35 215.62C236.93 219.33 236.93 225.34 243.35 229.05C249.77 232.76 260.19 232.76 266.61 229.05C273.03 225.34 273.03 219.33 266.61 215.62C260.19 211.91 249.74 211.92 243.35 215.62Z" fill="#455A64"/>
<path opacity="0.07" d="M243.35 215.62C236.93 219.33 236.93 225.34 243.35 229.05C249.77 232.76 260.19 232.76 266.61 229.05C273.03 225.34 273.03 219.33 266.61 215.62C260.19 211.91 249.74 211.92 243.35 215.62Z" fill="white"/>
<path d="M417.39 364.48L351.43 402.56V362.47L417.39 324.39V364.48Z" fill="#5FB3B3"/>
<path opacity="0.1" d="M417.39 364.48L351.43 402.56V362.47L417.39 324.39V364.48Z" fill="black"/>
<path d="M285.48 364.48L351.43 402.56V362.47L285.47 324.39L285.48 364.48Z" fill="#5FB3B3"/>
<path opacity="0.2" d="M285.48 364.48L351.43 402.56V362.47L285.47 324.39L285.48 364.48Z" fill="black"/>
<path d="M417.39 324.39L351.43 286.31L285.47 324.39L351.43 362.47L417.39 324.39Z" fill="#5FB3B3"/>
<path d="M367.87 301.42C367.87 298.99 366.27 296.56 363.06 294.71C356.64 291 346.23 291 339.81 294.71C336.6 296.56 334.99 298.99 334.99 301.42V307.91C334.99 310.34 336.6 312.76 339.81 314.62C346.23 318.33 356.64 318.33 363.06 314.62C366.27 312.76 367.88 310.34 367.87 307.91V301.42Z" fill="#5FB3B3"/>
<path opacity="0.1" d="M363.06 294.7C366.27 296.55 367.88 298.98 367.87 301.41V307.9C367.87 310.33 366.27 312.75 363.06 314.61C359.486 316.521 355.483 317.489 351.43 317.42V291.92C355.481 291.837 359.485 292.795 363.06 294.7V294.7Z" fill="black"/>
<path opacity="0.2" d="M339.81 294.7C336.6 296.55 334.99 298.98 334.99 301.41V307.9C334.99 310.33 336.6 312.75 339.81 314.61C343.381 316.52 347.381 317.487 351.43 317.42V291.92C347.383 291.839 343.382 292.796 339.81 294.7V294.7Z" fill="black"/>
<path d="M339.81 294.7C333.39 298.4 333.39 304.41 339.81 308.12C346.23 311.83 356.64 311.83 363.06 308.12C369.48 304.41 369.48 298.4 363.06 294.7C356.64 291 346.23 290.99 339.81 294.7Z" fill="#5FB3B3"/>
<path opacity="0.3" d="M339.81 294.7C333.39 298.4 333.39 304.41 339.81 308.12C346.23 311.83 356.64 311.83 363.06 308.12C369.48 304.41 369.48 298.4 363.06 294.7C356.64 291 346.23 290.99 339.81 294.7Z" fill="white"/>
<path d="M367.87 338.55C367.87 336.13 366.27 333.7 363.06 331.84C356.64 328.13 346.23 328.13 339.81 331.84C336.6 333.7 334.99 336.12 334.99 338.55V345.04C334.99 347.47 336.6 349.9 339.81 351.75C346.23 355.46 356.64 355.46 363.06 351.75C366.27 349.9 367.88 347.47 367.87 345.04V338.55Z" fill="#5FB3B3"/>
<path opacity="0.1" d="M363.06 331.84C366.27 333.7 367.88 336.12 367.87 338.55V345.04C367.87 347.47 366.27 349.9 363.06 351.75C359.486 353.66 355.481 354.618 351.43 354.53V329.06C355.48 328.982 359.483 329.939 363.06 331.84V331.84Z" fill="black"/>
<path opacity="0.2" d="M339.81 331.84C336.6 333.7 334.99 336.12 334.99 338.55V345.04C334.99 347.47 336.6 349.9 339.81 351.75C343.38 353.659 347.382 354.616 351.43 354.53V329.06C347.383 328.984 343.384 329.94 339.81 331.84Z" fill="black"/>
<path d="M339.81 331.84C333.39 335.55 333.39 341.56 339.81 345.27C346.23 348.98 356.64 348.97 363.06 345.27C369.48 341.57 369.48 335.55 363.06 331.84C356.64 328.13 346.23 328.13 339.81 331.84Z" fill="#5FB3B3"/>
<path opacity="0.3" d="M339.81 331.84C333.39 335.55 333.39 341.56 339.81 345.27C346.23 348.98 356.64 348.97 363.06 345.27C369.48 341.57 369.48 335.55 363.06 331.84C356.64 328.13 346.23 328.13 339.81 331.84Z" fill="white"/>
<path d="M335.74 319.97C335.74 317.54 334.13 315.11 330.92 313.26C324.5 309.55 314.09 309.55 307.67 313.26C304.46 315.11 302.85 317.54 302.85 319.97V326.42C302.85 328.85 304.46 331.28 307.67 333.13C314.09 336.84 324.5 336.84 330.92 333.13C334.13 331.28 335.74 328.85 335.74 326.42C335.74 324.66 335.74 321.77 335.74 319.97Z" fill="#5FB3B3"/>
<path opacity="0.1" d="M330.9 313.26C334.11 315.11 335.72 317.54 335.72 319.97C335.72 321.77 335.72 324.66 335.72 326.46C335.72 328.89 334.11 331.32 330.9 333.17C327.325 335.075 323.321 336.033 319.27 335.95V310.48C323.32 310.402 327.323 311.359 330.9 313.26Z" fill="black"/>
<path opacity="0.2" d="M307.65 313.26C304.44 315.11 302.83 317.54 302.83 319.97V326.42C302.83 328.85 304.44 331.28 307.65 333.13C311.222 335.034 315.223 335.991 319.27 335.91V310.48C315.223 310.404 311.224 311.36 307.65 313.26Z" fill="black"/>
<path d="M307.65 313.26C301.23 316.97 301.23 322.98 307.65 326.68C314.07 330.38 324.48 330.39 330.9 326.68C337.32 322.97 337.32 316.97 330.9 313.26C324.48 309.55 314.07 309.55 307.65 313.26Z" fill="#5FB3B3"/>
<path opacity="0.3" d="M307.65 313.26C301.23 316.97 301.23 322.98 307.65 326.68C314.07 330.38 324.48 330.39 330.9 326.68C337.32 322.97 337.32 316.97 330.9 313.26C324.48 309.55 314.07 309.55 307.65 313.26Z" fill="white"/>
<path d="M400.03 319.98C400.03 317.55 398.43 315.12 395.22 313.27C388.8 309.56 378.39 309.56 371.97 313.27C368.75 315.12 367.15 317.55 367.15 319.98V326.47C367.15 328.9 368.75 331.33 371.96 333.18C378.39 336.89 388.8 336.89 395.22 333.18C398.43 331.33 400.03 328.9 400.03 326.47V319.98Z" fill="#5FB3B3"/>
<path opacity="0.1" d="M395.22 313.27C398.43 315.12 400.03 317.55 400.03 319.98V326.47C400.03 328.9 398.43 331.33 395.22 333.18C391.645 335.085 387.641 336.043 383.59 335.96V310.49C387.64 310.412 391.643 311.369 395.22 313.27V313.27Z" fill="black"/>
<path opacity="0.2" d="M371.97 313.27C368.75 315.12 367.15 317.55 367.15 319.98V326.47C367.15 328.9 368.75 331.33 371.96 333.18C375.536 335.084 379.54 336.041 383.59 335.96V310.49C379.543 310.412 375.543 311.369 371.97 313.27V313.27Z" fill="black"/>
<path d="M371.97 313.27C365.54 316.98 365.54 322.99 371.97 326.7C378.4 330.41 388.81 330.4 395.23 326.7C401.65 323 401.65 316.98 395.23 313.27C388.81 309.56 378.39 309.56 371.97 313.27Z" fill="#5FB3B3"/>
<path opacity="0.3" d="M371.97 313.27C365.54 316.98 365.54 322.99 371.97 326.7C378.4 330.41 388.81 330.4 395.23 326.7C401.65 323 401.65 316.98 395.23 313.27C388.81 309.56 378.39 309.56 371.97 313.27Z" fill="white"/>
<path d="M353.1 223.85L287.14 261.93V221.84L353.1 183.76V223.85Z" fill="#5FB3B3"/>
<path opacity="0.3" d="M353.1 223.85L287.14 261.93V221.84L353.1 183.76V223.85Z" fill="black"/>
<path d="M221.18 223.85L287.14 261.93V221.84L221.18 183.76V223.85Z" fill="#5FB3B3"/>
<path opacity="0.4" d="M221.18 223.85L287.14 261.93V221.84L221.18 183.76V223.85Z" fill="black"/>
<path d="M353.1 183.76L287.14 145.68L221.18 183.76L287.14 221.84L353.1 183.76Z" fill="#5FB3B3"/>
<path opacity="0.55" d="M353.1 183.76L287.14 145.68L221.18 183.76L287.14 221.84L353.1 183.76Z" fill="black"/>
<path d="M303.58 160.78C303.58 158.35 301.98 155.92 298.77 154.07C292.35 150.36 281.93 150.36 275.51 154.07C272.3 155.92 270.7 158.35 270.7 160.78V167.27C270.7 169.7 272.3 172.13 275.51 173.98C281.93 177.69 292.34 177.69 298.77 173.98C301.98 172.13 303.58 169.7 303.58 167.27V160.78Z" fill="#5FB3B3"/>
<path opacity="0.3" d="M298.74 154.07C301.95 155.92 303.55 158.35 303.55 160.78V167.27C303.55 169.7 301.95 172.13 298.74 173.98C295.163 175.881 291.16 176.838 287.11 176.76V151.29C291.161 151.207 295.165 152.165 298.74 154.07V154.07Z" fill="black"/>
<path opacity="0.4" d="M275.51 154.07C272.3 155.92 270.7 158.35 270.7 160.78V167.27C270.7 169.7 272.3 172.13 275.51 173.98C279.087 175.881 283.09 176.838 287.14 176.76V151.29C283.089 151.207 279.085 152.165 275.51 154.07V154.07Z" fill="black"/>
<path d="M275.51 154.07C269.09 157.77 269.09 163.78 275.51 167.49C281.93 171.2 292.34 171.2 298.77 167.49C305.2 163.78 305.19 157.77 298.77 154.07C292.35 150.37 281.93 150.36 275.51 154.07Z" fill="#5FB3B3"/>
<path opacity="0.3" d="M275.51 154.07C269.09 157.77 269.09 163.78 275.51 167.49C281.93 171.2 292.34 171.2 298.77 167.49C305.2 163.78 305.19 157.77 298.77 154.07C292.35 150.37 281.93 150.36 275.51 154.07Z" fill="white"/>
<path d="M303.58 197.93C303.58 195.5 301.98 193.07 298.77 191.21C292.35 187.51 281.93 187.51 275.51 191.21C272.3 193.07 270.7 195.5 270.7 197.92V204.42C270.7 206.85 272.3 209.28 275.51 211.14C281.93 214.84 292.34 214.84 298.77 211.14C301.98 209.28 303.58 206.85 303.58 204.42V197.93Z" fill="#5FB3B3"/>
<path opacity="0.3" d="M298.74 191.21C301.95 193.07 303.55 195.5 303.55 197.92V204.42C303.55 206.85 301.95 209.28 298.74 211.14C295.163 213.041 291.16 213.998 287.11 213.92V188.42C291.161 188.345 295.164 189.306 298.74 191.21V191.21Z" fill="black"/>
<path opacity="0.4" d="M275.51 191.21C272.3 193.07 270.7 195.5 270.7 197.92V204.42C270.7 206.85 272.3 209.28 275.51 211.14C279.087 213.041 283.09 213.998 287.14 213.92V188.42C283.089 188.345 279.086 189.306 275.51 191.21Z" fill="black"/>
<path d="M275.51 191.21C269.09 194.92 269.09 200.93 275.51 204.64C281.93 208.35 292.34 208.35 298.77 204.64C305.2 200.93 305.19 194.92 298.77 191.21C292.35 187.5 281.93 187.51 275.51 191.21Z" fill="#5FB3B3"/>
<path opacity="0.3" d="M275.51 191.21C269.09 194.92 269.09 200.93 275.51 204.64C281.93 208.35 292.34 208.35 298.77 204.64C305.2 200.93 305.19 194.92 298.77 191.21C292.35 187.5 281.93 187.51 275.51 191.21Z" fill="white"/>
<path d="M271.42 179.34C271.42 176.91 269.82 174.48 266.61 172.63C260.19 168.92 249.78 168.92 243.35 172.63C240.14 174.48 238.54 176.91 238.54 179.34V185.83C238.54 188.26 240.14 190.69 243.35 192.54C249.77 196.25 260.19 196.25 266.61 192.54C269.82 190.69 271.42 188.26 271.42 185.83V179.34Z" fill="#5FB3B3"/>
<path opacity="0.3" d="M266.61 172.63C269.82 174.48 271.42 176.91 271.42 179.34V185.83C271.42 188.26 269.82 190.69 266.61 192.54C263.035 194.445 259.031 195.403 254.98 195.32V169.85C259.03 169.772 263.033 170.729 266.61 172.63V172.63Z" fill="black"/>
<path opacity="0.4" d="M243.35 172.63C240.14 174.48 238.54 176.91 238.54 179.34V185.83C238.54 188.26 240.14 190.69 243.35 192.54C246.925 194.445 250.929 195.403 254.98 195.32V169.85C250.93 169.772 246.927 170.729 243.35 172.63Z" fill="black"/>
<path d="M243.35 172.63C236.93 176.34 236.93 182.35 243.35 186.06C249.77 189.77 260.19 189.76 266.61 186.06C273.03 182.36 273.03 176.34 266.61 172.63C260.19 168.92 249.74 168.92 243.35 172.63Z" fill="#5FB3B3"/>
<path opacity="0.3" d="M243.35 172.63C236.93 176.34 236.93 182.35 243.35 186.06C249.77 189.77 260.19 189.76 266.61 186.06C273.03 182.36 273.03 176.34 266.61 172.63C260.19 168.92 249.74 168.92 243.35 172.63Z" fill="white"/>
<path d="M335.74 179.35C335.74 176.93 334.14 174.5 330.92 172.64C324.5 168.93 314.09 168.93 307.67 172.64C304.46 174.5 302.86 176.92 302.86 179.35V185.84C302.86 188.27 304.46 190.7 307.67 192.55C314.09 196.26 324.5 196.26 330.92 192.55C334.14 190.7 335.74 188.27 335.74 185.84V179.35Z" fill="#5FB3B3"/>
<path opacity="0.3" d="M330.92 172.64C334.13 174.5 335.74 176.92 335.74 179.35V185.84C335.74 188.27 334.13 190.7 330.92 192.55C327.348 194.455 323.347 195.413 319.3 195.33V169.86C323.347 169.782 327.347 170.739 330.92 172.64V172.64Z" fill="black"/>
<path opacity="0.4" d="M307.67 172.64C304.46 174.5 302.86 176.92 302.86 179.35V185.84C302.86 188.27 304.46 190.7 307.67 192.55C311.245 194.455 315.249 195.413 319.3 195.33V169.86C315.25 169.782 311.247 170.739 307.67 172.64V172.64Z" fill="black"/>
<path d="M307.67 172.64C301.25 176.35 301.25 182.36 307.67 186.07C314.09 189.78 324.5 189.77 330.92 186.07C337.34 182.37 337.35 176.35 330.92 172.64C324.49 168.93 314.09 168.93 307.67 172.64Z" fill="#5FB3B3"/>
<path opacity="0.3" d="M307.67 172.64C301.25 176.35 301.25 182.36 307.67 186.07C314.09 189.78 324.5 189.77 330.92 186.07C337.34 182.37 337.35 176.35 330.92 172.64C324.49 168.93 314.09 168.93 307.67 172.64Z" fill="white"/>
<path d="M283.67 306.92L217.71 345.01V304.92L283.67 266.84V306.92Z" fill="#5FB3B3"/>
<path opacity="0.3" d="M283.67 306.92L217.71 345.01V304.92L283.67 266.84V306.92Z" fill="black"/>
<path d="M151.75 306.92L217.71 345.01V304.92L151.75 266.84V306.92Z" fill="#5FB3B3"/>
<path opacity="0.4" d="M151.75 306.92L217.71 345.01V304.92L151.75 266.84V306.92Z" fill="black"/>
<path d="M283.67 266.84L217.71 228.76L151.75 266.84L217.71 304.92L283.67 266.84Z" fill="#5FB3B3"/>
<path opacity="0.55" d="M283.67 266.84L217.71 228.76L151.75 266.84L217.71 304.92L283.67 266.84Z" fill="black"/>
<path d="M234.15 243.86C234.15 241.43 232.55 239 229.34 237.15C222.92 233.44 212.51 233.44 206.08 237.15C202.87 239 201.27 241.43 201.27 243.86V250.35C201.27 252.78 202.87 255.21 206.08 257.06C212.5 260.77 222.92 260.77 229.34 257.06C232.55 255.21 234.15 252.78 234.15 250.35V243.86Z" fill="#5FB3B3"/>
<path opacity="0.3" d="M229.34 237.15C232.55 239 234.15 241.43 234.15 243.86V250.35C234.15 252.78 232.55 255.21 229.34 257.06C225.772 258.956 221.78 259.913 217.74 259.84V234.42C221.776 234.327 225.769 235.267 229.34 237.15Z" fill="black"/>
<path opacity="0.4" d="M206.08 237.15C202.87 239 201.27 241.43 201.27 243.86V250.35C201.27 252.78 202.87 255.21 206.08 257.06C209.666 258.966 213.68 259.923 217.74 259.84V234.42C213.684 234.317 209.669 235.257 206.08 237.15V237.15Z" fill="black"/>
<path d="M206.08 237.15C199.66 240.85 199.66 246.86 206.08 250.57C212.5 254.28 222.92 254.28 229.34 250.57C235.76 246.86 235.76 240.85 229.34 237.15C222.92 233.45 212.51 233.42 206.08 237.15Z" fill="#5FB3B3"/>
<path opacity="0.3" d="M206.08 237.15C199.66 240.85 199.66 246.86 206.08 250.57C212.5 254.28 222.92 254.28 229.34 250.57C235.76 246.86 235.76 240.85 229.34 237.15C222.92 233.45 212.51 233.42 206.08 237.15Z" fill="white"/>
<path d="M234.15 281C234.15 278.58 232.55 276.15 229.34 274.29C222.92 270.58 212.51 270.58 206.08 274.29C202.87 276.15 201.27 278.57 201.27 281V287.49C201.27 289.92 202.87 292.35 206.08 294.2C212.5 297.91 222.92 297.91 229.34 294.2C232.55 292.35 234.15 289.92 234.15 287.49V281Z" fill="#5FB3B3"/>
<path opacity="0.3" d="M229.34 274.29C232.55 276.15 234.15 278.57 234.15 281V287.49C234.15 289.92 232.55 292.35 229.34 294.2C225.774 296.104 221.781 297.064 217.74 296.99V271.51C221.78 271.437 225.772 272.394 229.34 274.29Z" fill="black"/>
<path opacity="0.4" d="M206.08 274.29C202.87 276.15 201.27 278.57 201.27 281V287.49C201.27 289.92 202.87 292.35 206.08 294.2C209.663 296.114 213.679 297.074 217.74 296.99V271.51C213.68 271.427 209.666 272.384 206.08 274.29V274.29Z" fill="black"/>
<path d="M206.08 274.29C199.66 278 199.66 284.01 206.08 287.72C212.5 291.43 222.92 291.42 229.34 287.72C235.76 284.02 235.76 278 229.34 274.29C222.92 270.58 212.51 270.58 206.08 274.29Z" fill="#5FB3B3"/>
<path opacity="0.3" d="M206.08 274.29C199.66 278 199.66 284.01 206.08 287.72C212.5 291.43 222.92 291.42 229.34 287.72C235.76 284.02 235.76 278 229.34 274.29C222.92 270.58 212.51 270.58 206.08 274.29Z" fill="white"/>
<path d="M201.99 262.42C201.99 259.99 200.39 257.56 197.18 255.71C190.76 252 180.35 252 173.92 255.71C170.71 257.56 169.11 259.99 169.11 262.42V268.91C169.11 271.34 170.71 273.77 173.92 275.62C180.34 279.33 190.76 279.33 197.18 275.62C200.39 273.77 201.99 271.34 201.99 268.91V262.42Z" fill="#5FB3B3"/>
<path opacity="0.3" d="M197.18 255.71C200.39 257.56 201.99 259.99 201.99 262.42V268.91C201.99 271.34 200.39 273.77 197.18 275.62C193.607 277.532 189.602 278.496 185.55 278.42V252.93C189.6 252.852 193.603 253.809 197.18 255.71V255.71Z" fill="black"/>
<path opacity="0.4" d="M173.92 255.71C170.71 257.56 169.11 259.99 169.11 262.42V268.91C169.11 271.34 170.71 273.77 173.92 275.62C177.493 277.532 181.498 278.496 185.55 278.42V252.93C181.5 252.854 177.498 253.81 173.92 255.71V255.71Z" fill="black"/>
<path d="M173.92 255.71C167.5 259.42 167.5 265.43 173.92 269.13C180.34 272.83 190.76 272.84 197.18 269.13C203.6 265.42 203.6 259.42 197.18 255.71C190.76 252 180.35 252 173.92 255.71Z" fill="#5FB3B3"/>
<path opacity="0.3" d="M173.92 255.71C167.5 259.42 167.5 265.43 173.92 269.13C180.34 272.83 190.76 272.84 197.18 269.13C203.6 265.42 203.6 259.42 197.18 255.71C190.76 252 180.35 252 173.92 255.71Z" fill="white"/>
<path d="M266.31 262.42C266.31 259.99 264.71 257.57 261.49 255.71C255.07 252 244.66 252 238.24 255.71C235.03 257.56 233.43 259.99 233.43 262.42V268.91C233.43 271.34 235.03 273.77 238.24 275.62C244.66 279.33 255.07 279.33 261.49 275.62C264.71 273.77 266.31 271.34 266.31 268.91V262.42Z" fill="#5FB3B3"/>
<path opacity="0.3" d="M261.49 255.72C264.7 257.57 266.31 260 266.31 262.43V268.92C266.31 271.35 264.71 273.78 261.5 275.63C257.925 277.538 253.921 278.498 249.87 278.42V252.94C253.917 252.862 257.917 253.819 261.49 255.72Z" fill="black"/>
<path opacity="0.4" d="M238.24 255.72C235.03 257.57 233.43 260 233.43 262.43V268.92C233.43 271.35 235.03 273.78 238.24 275.63C241.814 277.539 245.819 278.5 249.87 278.42V252.94C245.82 252.862 241.817 253.819 238.24 255.72Z" fill="black"/>
<path d="M238.24 255.72C231.82 259.43 231.82 265.44 238.24 269.15C244.66 272.86 255.07 272.85 261.49 269.15C267.91 265.45 267.92 259.43 261.49 255.72C255.06 252.01 244.66 252.01 238.24 255.72Z" fill="#5FB3B3"/>
<path opacity="0.3" d="M238.24 255.72C231.82 259.43 231.82 265.44 238.24 269.15C244.66 272.86 255.07 272.85 261.49 269.15C267.91 265.45 267.92 259.43 261.49 255.72C255.06 252.01 244.66 252.01 238.24 255.72Z" fill="white"/>
<path d="M283.67 263.93L217.71 302.01V261.93L283.67 223.85V263.93Z" fill="#5FB3B3"/>
<path opacity="0.1" d="M283.67 263.93L217.71 302.01V261.93L283.67 223.85V263.93Z" fill="black"/>
<path d="M151.75 263.93L217.71 302.01V261.93L151.75 223.85V263.93Z" fill="#5FB3B3"/>
<path opacity="0.2" d="M151.75 263.93L217.71 302.01V261.93L151.75 223.85V263.93Z" fill="black"/>
<path d="M283.67 223.85L217.71 185.76L151.75 223.85L217.71 261.93L283.67 223.85Z" fill="#5FB3B3"/>
<path d="M234.15 200.86C234.15 198.43 232.55 196.01 229.34 194.15C222.92 190.44 212.51 190.44 206.08 194.15C202.87 196.01 201.27 198.43 201.27 200.86V207.35C201.27 209.78 202.87 212.21 206.08 214.06C212.5 217.77 222.92 217.77 229.34 214.06C232.55 212.21 234.15 209.78 234.15 207.35V200.86Z" fill="#5FB3B3"/>
<path opacity="0.1" d="M229.34 194.15C232.55 196.01 234.15 198.43 234.15 200.86V207.35C234.15 209.78 232.55 212.21 229.34 214.06C225.774 215.961 221.78 216.917 217.74 216.84V191.42C221.776 191.332 225.767 192.271 229.34 194.15V194.15Z" fill="black"/>
<path opacity="0.2" d="M206.08 194.15C202.87 196.01 201.27 198.43 201.27 200.86V207.35C201.27 209.78 202.87 212.21 206.08 214.06C209.664 215.97 213.679 216.928 217.74 216.84V191.42C213.684 191.322 209.671 192.261 206.08 194.15Z" fill="black"/>
<path d="M206.08 194.15C199.66 197.86 199.66 203.87 206.08 207.58C212.5 211.29 222.92 211.28 229.34 207.58C235.76 203.88 235.76 197.86 229.34 194.15C222.92 190.44 212.51 190.42 206.08 194.15Z" fill="#5FB3B3"/>
<path opacity="0.3" d="M206.08 194.15C199.66 197.86 199.66 203.87 206.08 207.58C212.5 211.29 222.92 211.28 229.34 207.58C235.76 203.88 235.76 197.86 229.34 194.15C222.92 190.44 212.51 190.42 206.08 194.15Z" fill="white"/>
<path d="M234.15 238.01C234.15 235.58 232.55 233.15 229.34 231.3C222.92 227.59 212.51 227.59 206.08 231.3C202.87 233.15 201.27 235.58 201.27 238.01V244.5C201.27 246.93 202.87 249.36 206.08 251.21C212.5 254.92 222.92 254.92 229.34 251.21C232.55 249.36 234.15 246.93 234.15 244.5V238.01Z" fill="#5FB3B3"/>
<path opacity="0.1" d="M229.34 231.3C232.55 233.15 234.15 235.58 234.15 238.01V244.5C234.15 246.93 232.55 249.36 229.34 251.21C225.772 253.106 221.78 254.063 217.74 253.99V228.52C221.78 228.443 225.774 229.4 229.34 231.3V231.3Z" fill="black"/>
<path opacity="0.2" d="M206.08 231.3C202.87 233.15 201.27 235.58 201.27 238.01V244.5C201.27 246.93 202.87 249.36 206.08 251.21C209.666 253.116 213.68 254.073 217.74 253.99V228.52C213.679 228.432 209.664 229.39 206.08 231.3V231.3Z" fill="black"/>
<path d="M206.08 231.3C199.66 235.01 199.66 241.02 206.08 244.72C212.5 248.42 222.92 248.43 229.34 244.72C235.76 241.01 235.76 235.01 229.34 231.3C222.92 227.59 212.51 227.59 206.08 231.3Z" fill="#5FB3B3"/>
<path opacity="0.3" d="M206.08 231.3C199.66 235.01 199.66 241.02 206.08 244.72C212.5 248.42 222.92 248.43 229.34 244.72C235.76 241.01 235.76 235.01 229.34 231.3C222.92 227.59 212.51 227.59 206.08 231.3Z" fill="white"/>
<path d="M201.99 219.42C201.99 216.99 200.39 214.56 197.18 212.71C190.76 209 180.35 209 173.92 212.71C170.71 214.56 169.11 216.99 169.11 219.42V225.91C169.11 228.34 170.71 230.76 173.92 232.62C180.34 236.32 190.76 236.33 197.18 232.62C200.39 230.76 201.99 228.33 201.99 225.91V219.42Z" fill="#5FB3B3"/>
<path opacity="0.1" d="M197.18 212.72C200.39 214.57 201.99 217 201.99 219.43V225.92C201.99 228.35 200.39 230.77 197.18 232.63C193.604 234.534 189.601 235.495 185.55 235.42V209.93C189.601 209.851 193.605 210.811 197.18 212.72V212.72Z" fill="black"/>
<path opacity="0.2" d="M173.92 212.72C170.71 214.57 169.11 217 169.11 219.43V225.92C169.11 228.35 170.71 230.77 173.92 232.63C177.496 234.534 181.499 235.495 185.55 235.42V209.93C181.499 209.852 177.495 210.812 173.92 212.72V212.72Z" fill="black"/>
<path d="M173.92 212.72C167.5 216.42 167.5 222.43 173.92 226.14C180.34 229.85 190.76 229.85 197.18 226.14C203.6 222.43 203.6 216.42 197.18 212.72C190.76 209.02 180.35 209.01 173.92 212.72Z" fill="#5FB3B3"/>
<path opacity="0.3" d="M173.92 212.72C167.5 216.42 167.5 222.43 173.92 226.14C180.34 229.85 190.76 229.85 197.18 226.14C203.6 222.43 203.6 216.42 197.18 212.72C190.76 209.02 180.35 209.01 173.92 212.72Z" fill="white"/>
<path d="M266.31 219.42C266.31 216.99 264.71 214.56 261.49 212.71C255.07 209 244.66 209 238.24 212.71C235.03 214.56 233.43 216.99 233.43 219.42V225.91C233.43 228.34 235.03 230.77 238.24 232.62C244.66 236.33 255.07 236.33 261.49 232.62C264.71 230.77 266.31 228.34 266.31 225.91V219.42Z" fill="#5FB3B3"/>
<path opacity="0.1" d="M261.49 212.73C264.7 214.58 266.31 217.01 266.31 219.44V225.93C266.31 228.36 264.71 230.79 261.5 232.64C257.922 234.54 253.92 235.496 249.87 235.42V209.95C253.917 209.867 257.918 210.825 261.49 212.73V212.73Z" fill="black"/>
<path opacity="0.2" d="M238.24 212.73C235.03 214.58 233.43 217.01 233.43 219.44V225.93C233.43 228.36 235.03 230.79 238.24 232.64C241.817 234.541 245.82 235.498 249.87 235.42V209.95C245.819 209.867 241.815 210.825 238.24 212.73Z" fill="black"/>
<path d="M238.24 212.73C231.82 216.43 231.82 222.44 238.24 226.15C244.66 229.86 255.07 229.86 261.49 226.15C267.91 222.44 267.92 216.43 261.49 212.73C255.06 209.03 244.66 209.02 238.24 212.73Z" fill="#5FB3B3"/>
<path opacity="0.3" d="M238.24 212.73C231.82 216.43 231.82 222.44 238.24 226.15C244.66 229.86 255.07 229.86 261.49 226.15C267.91 222.44 267.92 216.43 261.49 212.73C255.06 209.03 244.66 209.02 238.24 212.73Z" fill="white"/>
<path d="M214.24 347.01L148.28 385.09V345.01L214.24 306.92V347.01Z" fill="#37474F"/>
<path d="M82.32 347.01L148.28 385.09V345.01L82.32 306.92V347.01Z" fill="#263238"/>
<path d="M214.24 306.92L148.28 268.84L82.32 306.92L148.28 345.01L214.24 306.92Z" fill="#455A64"/>
<path d="M159.91 314.42C163.12 316.27 164.72 318.7 164.72 321.13V327.62C164.72 330.05 163.12 332.48 159.91 334.33C156.333 336.231 152.33 337.188 148.28 337.11V311.6C152.334 311.53 156.338 312.501 159.91 314.42V314.42Z" fill="#37474F"/>
<path d="M136.65 314.42C133.44 316.27 131.84 318.7 131.84 321.13V327.62C131.84 330.05 133.44 332.48 136.65 334.33C140.227 336.231 144.23 337.188 148.28 337.11V311.6C144.226 311.53 140.222 312.501 136.65 314.42V314.42Z" fill="#263238"/>
<path d="M136.65 314.42C130.23 318.12 130.23 324.14 136.65 327.84C143.07 331.54 153.49 331.55 159.91 327.84C166.33 324.13 166.33 318.13 159.91 314.42C153.49 310.71 143.08 310.67 136.65 314.42Z" fill="#455A64"/>
<path opacity="0.07" d="M136.65 314.42C130.23 318.12 130.23 324.14 136.65 327.84C143.07 331.54 153.49 331.55 159.91 327.84C166.33 324.13 166.33 318.13 159.91 314.42C153.49 310.71 143.08 310.67 136.65 314.42Z" fill="white"/>
<path d="M159.91 277.23C163.12 279.08 164.72 281.51 164.72 283.94V290.42C164.72 292.85 163.12 295.28 159.91 297.13C156.335 299.035 152.331 299.993 148.28 299.91V274.42C152.333 274.352 156.336 275.319 159.91 277.23V277.23Z" fill="#37474F"/>
<path d="M136.65 277.23C133.44 279.08 131.84 281.51 131.84 283.94V290.42C131.84 292.85 133.44 295.28 136.65 297.13C140.225 299.035 144.229 299.993 148.28 299.91V274.42C144.227 274.352 140.224 275.319 136.65 277.23V277.23Z" fill="#263238"/>
<path d="M136.65 277.23C130.23 280.94 130.23 286.95 136.65 290.66C143.07 294.37 153.49 294.36 159.91 290.66C166.33 286.96 166.33 280.94 159.91 277.23C153.49 273.52 143.08 273.52 136.65 277.23Z" fill="#455A64"/>
<path opacity="0.07" d="M136.65 277.23C130.23 280.94 130.23 286.95 136.65 290.66C143.07 294.37 153.49 294.36 159.91 290.66C166.33 286.96 166.33 280.94 159.91 277.23C153.49 273.52 143.08 273.52 136.65 277.23Z" fill="white"/>
<path d="M192.06 295.81C195.27 297.66 196.88 300.09 196.88 302.52V309.01C196.88 311.44 195.28 313.87 192.07 315.72C188.492 317.62 184.49 318.576 180.44 318.5V293.03C184.487 292.947 188.488 293.905 192.06 295.81V295.81Z" fill="#37474F"/>
<path d="M168.81 295.81C165.6 297.66 164 300.09 164 302.52V309.01C164 311.44 165.6 313.87 168.81 315.72C172.387 317.621 176.39 318.578 180.44 318.5V293.03C176.389 292.947 172.385 293.905 168.81 295.81Z" fill="#263238"/>
<path d="M168.81 295.81C162.39 299.51 162.39 305.52 168.81 309.23C175.23 312.94 185.64 312.94 192.06 309.23C198.48 305.52 198.49 299.51 192.06 295.81C185.63 292.11 175.23 292.1 168.81 295.81Z" fill="#455A64"/>
<path opacity="0.07" d="M168.81 295.81C162.39 299.51 162.39 305.52 168.81 309.23C175.23 312.94 185.64 312.94 192.06 309.23C198.48 305.52 198.49 299.51 192.06 295.81C185.63 292.11 175.23 292.1 168.81 295.81Z" fill="white"/>
<path d="M127.74 295.79C130.95 297.65 132.55 300.08 132.55 302.51V309C132.55 311.42 130.95 313.85 127.74 315.71C124.163 317.611 120.16 318.568 116.11 318.49V293.01C120.16 292.932 124.163 293.889 127.74 295.79Z" fill="#37474F"/>
<path d="M104.49 295.79C101.28 297.65 99.68 300.08 99.68 302.51V309C99.68 311.42 101.28 313.85 104.49 315.71C108.067 317.611 112.07 318.568 116.12 318.49V293.01C112.07 292.934 108.068 293.89 104.49 295.79V295.79Z" fill="#263238"/>
<path d="M104.49 295.79C98.07 299.5 98.07 305.51 104.49 309.22C110.91 312.93 121.33 312.93 127.75 309.22C134.17 305.51 134.17 299.5 127.75 295.8C121.33 292.1 110.92 292.09 104.49 295.79Z" fill="#455A64"/>
<path opacity="0.07" d="M104.49 295.79C98.07 299.5 98.07 305.51 104.49 309.22C110.91 312.93 121.33 312.93 127.75 309.22C134.17 305.51 134.17 299.5 127.75 295.8C121.33 292.1 110.92 292.09 104.49 295.79Z" fill="white"/>
<path d="M353.1 180.86L287.14 218.95V178.86L353.1 140.78V180.86Z" fill="#37474F"/>
<path d="M221.18 180.86L287.14 218.95V178.86L221.18 140.78V180.86Z" fill="#263238"/>
<path d="M353.1 140.78L287.14 102.7L221.18 140.78L287.14 178.86L353.1 140.78Z" fill="#455A64"/>
<path d="M298.74 148.23C301.95 150.09 303.55 152.52 303.55 154.94V161.42C303.55 163.85 301.95 166.28 298.74 168.14C295.163 170.041 291.16 170.998 287.11 170.92V145.42C291.163 145.352 295.166 146.319 298.74 148.23V148.23Z" fill="#37474F"/>
<path d="M275.51 148.23C272.3 150.09 270.7 152.52 270.7 154.94V161.42C270.7 163.85 272.3 166.28 275.51 168.14C279.087 170.041 283.09 170.998 287.14 170.92V145.42C283.087 145.352 279.084 146.319 275.51 148.23V148.23Z" fill="#263238"/>
<path d="M275.51 148.23C269.09 151.94 269.09 157.95 275.51 161.66C281.93 165.37 292.34 165.36 298.77 161.66C305.2 157.96 305.19 151.94 298.77 148.23C292.35 144.52 281.93 144.53 275.51 148.23Z" fill="#455A64"/>
<path opacity="0.07" d="M275.51 148.23C269.09 151.94 269.09 157.95 275.51 161.66C281.93 165.37 292.34 165.36 298.77 161.66C305.2 157.96 305.19 151.94 298.77 148.23C292.35 144.52 281.93 144.53 275.51 148.23Z" fill="white"/>
<path d="M298.74 111.09C301.95 112.94 303.55 115.37 303.55 117.8V124.29C303.55 126.72 301.95 129.15 298.74 131C295.163 132.901 291.16 133.858 287.11 133.78V108.31C291.161 108.227 295.165 109.185 298.74 111.09V111.09Z" fill="#37474F"/>
<path d="M275.51 111.09C272.3 112.94 270.7 115.37 270.7 117.8V124.29C270.7 126.72 272.3 129.15 275.51 131C279.087 132.901 283.09 133.858 287.14 133.78V108.31C283.089 108.227 279.085 109.185 275.51 111.09V111.09Z" fill="#263238"/>
<path d="M275.51 111.09C269.09 114.79 269.09 120.8 275.51 124.51C281.93 128.22 292.34 128.22 298.77 124.51C305.2 120.8 305.19 114.79 298.77 111.09C292.35 107.39 281.93 107.42 275.51 111.09Z" fill="#455A64"/>
<path opacity="0.07" d="M275.51 111.09C269.09 114.79 269.09 120.8 275.51 124.51C281.93 128.22 292.34 128.22 298.77 124.51C305.2 120.8 305.19 114.79 298.77 111.09C292.35 107.39 281.93 107.42 275.51 111.09Z" fill="white"/>
<path d="M330.92 129.66C334.13 131.52 335.74 133.94 335.74 136.37V142.86C335.74 145.29 334.13 147.72 330.92 149.57C327.348 151.475 323.347 152.433 319.3 152.35V126.88C323.347 126.802 327.347 127.759 330.92 129.66V129.66Z" fill="#37474F"/>
<path d="M307.67 129.66C304.46 131.52 302.86 133.94 302.86 136.37V142.86C302.86 145.29 304.46 147.72 307.67 149.57C311.245 151.475 315.249 152.433 319.3 152.35V126.88C315.25 126.802 311.247 127.759 307.67 129.66Z" fill="#263238"/>
<path d="M307.67 129.66C301.25 133.37 301.25 139.38 307.67 143.09C314.09 146.8 324.5 146.79 330.92 143.09C337.34 139.39 337.35 133.37 330.92 129.66C324.49 125.95 314.09 125.95 307.67 129.66Z" fill="#455A64"/>
<path opacity="0.07" d="M307.67 129.66C301.25 133.37 301.25 139.38 307.67 143.09C314.09 146.8 324.5 146.79 330.92 143.09C337.34 139.39 337.35 133.37 330.92 129.66C324.49 125.95 314.09 125.95 307.67 129.66Z" fill="white"/>
<path d="M266.61 129.65C269.82 131.5 271.42 133.93 271.42 136.36V142.85C271.42 145.28 269.82 147.71 266.61 149.56C263.035 151.465 259.031 152.423 254.98 152.34V126.87C259.03 126.792 263.033 127.749 266.61 129.65V129.65Z" fill="#37474F"/>
<path d="M243.35 129.65C240.14 131.5 238.54 133.93 238.54 136.36V142.85C238.54 145.28 240.14 147.71 243.35 149.56C246.925 151.465 250.929 152.423 254.98 152.34V126.87C250.93 126.792 246.927 127.749 243.35 129.65V129.65Z" fill="#263238"/>
<path d="M243.35 129.65C236.93 133.36 236.93 139.37 243.35 143.07C249.77 146.77 260.19 146.78 266.61 143.07C273.03 139.36 273.03 133.35 266.61 129.64C260.19 125.93 249.74 125.94 243.35 129.65Z" fill="#455A64"/>
<path opacity="0.07" d="M243.35 129.65C236.93 133.36 236.93 139.37 243.35 143.07C249.77 146.77 260.19 146.78 266.61 143.07C273.03 139.36 273.03 133.35 266.61 129.64C260.19 125.93 249.74 125.94 243.35 129.65Z" fill="white"/>
<path d="M330.68 54.65L336.68 58.11C336.648 57.8478 336.632 57.5841 336.63 57.32V55.58C336.63 52.49 338.8 51.23 341.48 52.78C342.635 53.4876 343.624 54.4358 344.38 55.56C344.82 51.67 347.87 50.22 351.58 52.36C353.69 53.7392 355.446 55.5957 356.706 57.7795C357.965 59.9632 358.693 62.4128 358.83 64.93V67.53C358.852 68.5629 358.644 69.5879 358.22 70.53L363.22 73.41C364.003 73.9202 364.655 74.6082 365.123 75.4179C365.59 76.2277 365.86 77.1364 365.91 78.07C365.91 79.78 364.7 80.48 363.22 79.62L330.68 60.86C329.895 60.351 329.243 59.6633 328.775 58.8533C328.307 58.0433 328.038 57.134 327.99 56.2C327.99 54.49 329.19 53.79 330.68 54.65Z" fill="#EBEBEB"/>
<path d="M370.36 38.71L373.67 39.98V32.69C373.67 26.9 378.28 25.52 383.29 28.41C388.29 31.3 392.35 38.33 392.35 44.11V45.17C393.055 44.9516 393.801 44.8965 394.53 45.0092C395.259 45.1218 395.954 45.3991 396.56 45.82V45.82C398.458 47.0585 400.038 48.7272 401.171 50.6905C402.304 52.6538 402.958 54.8566 403.08 57.12V57.6L407.74 60.27C408.991 61.085 410.032 62.1834 410.779 63.476C411.526 64.7687 411.958 66.2192 412.04 67.71C412.04 70.45 410.11 71.56 407.74 70.19L370.36 48.63C369.108 47.8162 368.066 46.7181 367.319 45.4252C366.571 44.1323 366.14 42.6812 366.06 41.19C366.06 38.42 367.98 37.34 370.36 38.71Z" fill="#EBEBEB"/>
<path d="M89.74 40.48H85.68C83.0747 40.4839 80.4941 39.9742 78.086 38.9799C75.6779 37.9856 73.4894 36.5263 71.6458 34.6855C69.8021 32.8446 68.3395 30.6584 67.3416 28.2517C66.3437 25.8451 65.83 23.2653 65.83 20.66V20.66C65.8287 17.9474 66.3619 15.261 67.399 12.7545C68.4362 10.248 69.9571 7.97037 71.8747 6.05178C73.7924 4.13319 76.0693 2.61123 78.5753 1.57284C81.0813 0.534459 83.7674 -3.18069e-07 86.48 0H88.89C94.3676 0.00265133 99.62 2.18049 103.492 6.05471C107.365 9.92892 109.54 15.1824 109.54 20.66V20.66C109.54 25.9131 107.455 30.9514 103.742 34.6678C100.029 38.3842 94.9931 40.4747 89.74 40.48V40.48Z" fill="#263830"/>
<path d="M63.1 31.93C66.54 28.63 70.55 30.52 74.1 34.2C77.65 37.88 79.36 41.97 75.92 45.27C72.48 48.57 66.83 48.27 63.29 44.58C59.75 40.89 59.66 35.23 63.1 31.93Z" fill="#263830"/>
<path d="M111.05 61.1C115.84 69.21 121.62 79.03 124.86 82.41C131.01 85.27 145.07 90.62 150.72 91.41C151.716 91.5315 152.723 91.2939 153.56 90.74C155.78 89.28 157.5 89.05 159.85 88.24C161.68 87.6 162.46 86.73 162.85 87.06C163.203 87.4754 163.379 88.0121 163.342 88.5556C163.304 89.0992 163.056 89.6067 162.65 89.97C161.772 90.8052 160.799 91.5336 159.75 92.14C162.258 92.7588 164.873 92.8033 167.4 92.27C172.3 90.99 174.61 93.34 171.3 98.65C170.11 100.56 165.45 103.6 155.99 102.78C152.619 102.587 149.263 102.19 145.94 101.59C136.87 99.66 127.18 96.83 120.94 94.97C118.644 94.0633 116.59 92.6358 114.94 90.8C104.51 78.91 99.39 68.38 94.82 60.68L95.21 48.1C102.58 47.82 107.04 54.31 111.05 61.1Z" fill="#FFA8A7"/>
<path d="M61.91 249.62C61.4229 252.344 61.162 255.103 61.13 257.87C61.03 262.87 60.13 264.65 59.99 268.76C59.85 273.45 60.66 275.21 62.57 277.85C64.48 280.49 69.47 282.85 71.57 278.42C73.67 273.99 73.41 271.04 72.74 266.42C72.07 261.8 71.95 259.03 71.55 255.42C71.19 252.22 70.76 249.79 70.76 249.79L61.91 249.62Z" fill="#263830"/>
<path d="M76.12 210.26L59.63 209.96C59.88 220.96 61.63 239.29 61.91 249.62C61.91 251.57 61.91 264.73 62.6 268.73C63.7 274.73 70.83 273.93 71.21 270.33C71.59 266.73 70.74 251.42 70.74 249.78C70.68 243.16 73.74 225.87 75.41 213.98C75.52 213.42 76.04 210.83 76.12 210.26Z" fill="#FFA8A7"/>
<path d="M100.35 241.06C100.35 241.06 99.5 241.11 99.35 241.8C99.2 242.49 99.15 243.93 98.81 245.29C98.2473 247.418 98.0479 249.626 98.22 251.82C98.5 253.35 102.01 255.64 104.41 256.05C106.81 256.46 110.2 258.82 112.08 260.59C115.097 263.085 118.831 264.553 122.74 264.78C126.74 264.78 129.54 263.45 130.86 261.3C132.18 259.15 129.65 258.9 125.08 255.93L121.52 253.62C114.27 248.88 111.61 246.34 109.52 241.62L100.35 241.06Z" fill="#263830"/>
<path d="M109.64 238.12C109.52 234.72 111.86 199.7 111.86 199.7L96.2 206.84C99.55 226.84 100.71 238.04 100.32 240.95C100.254 241.225 100.224 241.507 100.23 241.79C100.23 245.68 104.64 247.79 108.06 250.37C109.41 251.37 112.89 254.55 116.96 255.93C119.6 256.83 124.47 257.17 125.09 255.57C120.93 252.39 115.26 248.23 111.94 244.57C110.36 242.87 109.74 241.53 109.64 238.12Z" fill="#FFA8A7"/>
<path d="M66.39 102.87C60.39 116.07 60.39 126.28 61.39 143.12C62.3 158.57 63.75 172.18 63.75 172.18C63.52 174.92 59.75 180.27 59.22 192.39C59.0297 200.971 59.2901 209.556 60 218.11C60 218.11 68.55 222.85 74.88 218.11C74.88 218.11 80.98 188.97 82.77 174.79C84.33 162.41 88.7 136.7 88.7 136.7L95.84 174.7C94.599 178.686 93.6991 182.771 93.15 186.91C92.34 195.25 97 211.63 97 211.63C97 211.63 105.84 214.27 111.24 209.48C111.24 209.48 113.24 182.85 114.01 172.81C115.01 159.35 112.73 122.55 109.65 103.67L66.39 102.87Z" fill="#37474F"/>
<path d="M88.68 136.66L90.51 124.07C90.51 124.07 101.15 122.65 105.97 118.07C104.59 120.231 102.751 122.062 100.584 123.432C98.4164 124.803 95.9741 125.68 93.43 126L91.55 137.42L94.81 170.42L88.68 136.66Z" fill="#263830"/>
<path d="M79.26 48.5C76.08 48.72 71.96 49.37 71.96 49.37C68.62 51.24 66.96 54.64 66.96 58.61C66.96 62.95 64.54 65.38 65.86 72.53L71.07 85.53C70.82 88.78 66.92 96.42 64.69 107.01C77.43 114.12 93.69 112.46 102.69 108.61C105.395 107.57 107.8 105.876 109.69 103.68C108.21 95.88 107.69 95.98 106.87 88.85C106.467 85.9718 106.307 83.065 106.39 80.16C110.47 74.91 112.65 69.77 110.59 65.05C106.39 55.47 98.54 47.76 94.5 48.05L79.26 48.5Z" fill="#5FB3B3"/>
<path opacity="0.7" d="M79.26 48.5C76.08 48.72 71.96 49.37 71.96 49.37C68.62 51.24 66.96 54.64 66.96 58.61C66.96 62.95 64.54 65.38 65.86 72.53L71.07 85.53C70.82 88.78 66.92 96.42 64.69 107.01C77.43 114.12 93.69 112.46 102.69 108.61C105.395 107.57 107.8 105.876 109.69 103.68C108.21 95.88 107.69 95.98 106.87 88.85C106.467 85.9718 106.307 83.065 106.39 80.16C110.47 74.91 112.65 69.77 110.59 65.05C106.39 55.47 98.54 47.76 94.5 48.05L79.26 48.5Z" fill="white"/>
<path opacity="0.1" d="M97.43 79.64C97.43 79.64 91.61 84.16 84.97 81.8C83.1058 81.2092 81.4253 80.148 80.0905 78.7187C78.7558 77.2894 77.812 75.5403 77.35 73.64C77.35 73.64 76.65 81.23 85.03 83.82C87.272 84.5429 89.6869 84.5269 91.9192 83.7744C94.1514 83.0219 96.0831 81.5727 97.43 79.64V79.64Z" fill="black"/>
<path d="M101.43 9.29001C103.74 10.66 106.6 16.46 106.32 28.63C106.08 38.95 102.73 41.5 101.05 42.23C99.37 42.96 96.14 42.52 92.99 42V48.19C92.99 48.19 96.62 51.99 96.34 54.83C96.06 57.67 90.65 57.99 86.57 55.21C84.0989 53.521 81.8945 51.4716 80.03 49.13V33.78C80.03 33.78 78.31 35.61 75.26 33.51C74.6016 33.0924 74.0375 32.5421 73.6037 31.8943C73.1698 31.2465 72.8758 30.5154 72.7403 29.7476C72.6048 28.9798 72.6308 28.1922 72.8167 27.435C73.0026 26.6779 73.3443 25.9678 73.82 25.35C75.14 23.79 78.51 23.68 80.13 26.1C80.13 26.1 84.36 25.73 91.05 22.1C93.5373 20.7519 95.7343 18.9266 97.5154 16.7285C99.2966 14.5304 100.627 12.0027 101.43 9.29001Z" fill="#FFA8A7"/>
<path d="M102.74 9.28001C102.74 9.28001 105.4 15.59 98.16 20.79C98.16 20.79 101.95 16.26 100.58 10.57C99.45 5.83001 102.5 7.07001 102.74 9.28001Z" fill="#263830"/>
<path d="M93.64 26.04C93.6591 26.3859 93.5405 26.7253 93.3099 26.984C93.0794 27.2426 92.7558 27.3994 92.41 27.42C92.0606 27.4281 91.722 27.2984 91.4675 27.0589C91.213 26.8193 91.063 26.4893 91.05 26.14C91.0282 25.9627 91.0432 25.7829 91.0941 25.6117C91.1449 25.4404 91.2304 25.2815 91.3454 25.1449C91.4603 25.0082 91.6022 24.8966 91.7622 24.8172C91.9222 24.7378 92.0968 24.6922 92.2751 24.6832C92.4535 24.6743 92.6318 24.7022 92.7989 24.7652C92.9661 24.8282 93.1184 24.9249 93.2465 25.0494C93.3745 25.1739 93.4756 25.3235 93.5433 25.4887C93.611 25.654 93.6439 25.8314 93.64 26.01V26.04Z" fill="#263830"/>
<path d="M95.14 34.79L98.14 35.79C98.0867 35.9966 97.9913 36.19 97.8597 36.358C97.7282 36.526 97.5634 36.6651 97.3757 36.7665C97.1879 36.8678 96.9813 36.9294 96.7686 36.9472C96.556 36.965 96.342 36.9387 96.14 36.87C95.7345 36.7228 95.4028 36.4227 95.2158 36.0339C95.0289 35.6451 95.0017 35.1986 95.14 34.79Z" fill="#F28F8F"/>
<path d="M105.14 22.06L102.52 20.24C102.629 20.0626 102.774 19.9094 102.945 19.7899C103.115 19.6703 103.309 19.5869 103.513 19.5448C103.717 19.5026 103.928 19.5027 104.132 19.5448C104.336 19.587 104.529 19.6704 104.7 19.79C105.048 20.0416 105.287 20.4163 105.369 20.838C105.451 21.2596 105.369 21.6966 105.14 22.06V22.06Z" fill="#263830"/>
<path d="M104.54 25.11C104.542 25.3645 104.468 25.6138 104.33 25.8271C104.191 26.0404 103.993 26.2083 103.759 26.3099C103.526 26.4116 103.268 26.4425 103.017 26.3989C102.767 26.3553 102.534 26.239 102.349 26.0646C102.164 25.8901 102.034 25.6651 101.975 25.4175C101.916 25.1698 101.932 24.9104 102.019 24.6715C102.107 24.4325 102.262 24.2244 102.467 24.0731C102.671 23.9217 102.916 23.8337 103.17 23.82C103.522 23.8119 103.863 23.9427 104.12 24.1841C104.376 24.4255 104.527 24.7581 104.54 25.11Z" fill="#263830"/>
<path d="M97.34 24.36L97.54 32.17L101.65 30.9L97.34 24.36Z" fill="#F28F8F"/>
<path d="M92.99 42C89.67 41.56 82.84 39.6 81.78 36.9C82.205 38.2674 83.0392 39.4715 84.17 40.35C86.17 42.09 92.99 44.06 92.99 44.06V42Z" fill="#F28F8F"/>
<path d="M205.53 149.96L139.57 188.05V147.96L205.53 109.88V149.96Z" fill="#5FB3B3"/>
<path opacity="0.3" d="M205.53 149.96L139.57 188.05V147.96L205.53 109.88V149.96Z" fill="black"/>
<path d="M73.61 149.96L139.57 188.05V147.96L73.61 109.88V149.96Z" fill="#5FB3B3"/>
<path opacity="0.4" d="M73.61 149.96L139.57 188.05V147.96L73.61 109.88V149.96Z" fill="black"/>
<path opacity="0.1" d="M85.57 134.19L82.03 130.65C81.53 130.16 80.98 129.72 80.5 129.19C80.32 129 79.4 127.93 79.69 127.64C79.7239 127.615 79.763 127.597 79.8045 127.588C79.8459 127.58 79.8888 127.58 79.93 127.59C81.5 127.75 83.49 127.68 84.59 126.36C84.7808 126.14 84.9117 125.875 84.97 125.59C85.0029 125.381 84.9566 125.167 84.84 124.99C84.61 124.65 84.01 124.65 83.64 124.54C83.1701 124.397 82.7174 124.202 82.29 123.96C81.5541 123.567 80.7884 123.233 80 122.96L76.86 122.29C76.406 121.93 75.8845 121.665 75.3262 121.511C74.768 121.356 74.1844 121.315 73.61 121.39V139.3C74.9081 140.025 76.3476 140.462 77.83 140.58C79.7893 140.807 81.773 140.485 83.56 139.65C85.01 138.93 87.31 137.07 86.39 135.18C86.1718 134.808 85.8949 134.474 85.57 134.19Z" fill="black"/>
<path d="M205.53 109.88L139.57 71.8L73.61 109.88L139.57 147.96L205.53 109.88Z" fill="#5FB3B3"/>
<path opacity="0.15" d="M205.53 109.88L139.57 71.8L73.61 109.88L139.57 147.96L205.53 109.88Z" fill="black"/>
<path d="M156.01 86.9C156.01 84.47 154.41 82.04 151.19 80.19C144.77 76.48 134.36 76.48 127.94 80.19C124.73 82.04 123.13 84.47 123.13 86.9V93.42C123.13 95.85 124.73 98.27 127.94 100.13C134.36 103.83 144.77 103.84 151.19 100.13C154.41 98.27 156.01 95.84 156.01 93.42V86.9Z" fill="#5FB3B3"/>
<path opacity="0.3" d="M151.19 80.19C154.4 82.04 156.01 84.47 156.01 86.9V93.42C156.01 95.85 154.41 98.27 151.19 100.13C147.617 102.031 143.617 102.988 139.57 102.91V77.42C143.616 77.3347 147.617 78.2884 151.19 80.19Z" fill="black"/>
<path opacity="0.4" d="M127.94 80.19C124.73 82.04 123.13 84.47 123.13 86.9V93.42C123.13 95.85 124.73 98.27 127.94 100.13C131.517 102.031 135.52 102.988 139.57 102.91V77.42C135.52 77.3347 131.516 78.2884 127.94 80.19V80.19Z" fill="black"/>
<path d="M127.94 80.19C121.52 83.89 121.52 89.9 127.94 93.61C134.36 97.32 144.77 97.32 151.19 93.61C157.61 89.9 157.62 83.89 151.19 80.19C144.76 76.49 134.36 76.48 127.94 80.19Z" fill="#5FB3B3"/>
<path d="M156.01 124.04C156.01 121.61 154.41 119.19 151.19 117.33C144.77 113.62 134.36 113.62 127.94 117.33C124.73 119.18 123.13 121.61 123.13 124.04V130.53C123.13 132.96 124.73 135.39 127.94 137.24C134.36 140.95 144.77 140.95 151.19 137.24C154.41 135.39 156.01 132.96 156.01 130.53V124.04Z" fill="#5FB3B3"/>
<path opacity="0.3" d="M151.19 117.33C154.4 119.18 156.01 121.61 156.01 124.04V130.53C156.01 132.96 154.41 135.39 151.19 137.24C147.618 139.145 143.617 140.103 139.57 140.02V114.55C143.617 114.472 147.617 115.429 151.19 117.33V117.33Z" fill="black"/>
<path opacity="0.4" d="M127.94 117.33C124.73 119.18 123.13 121.61 123.13 124.04V130.53C123.13 132.96 124.73 135.39 127.94 137.24C131.515 139.145 135.519 140.103 139.57 140.02V114.55C135.52 114.472 131.517 115.429 127.94 117.33V117.33Z" fill="black"/>
<path d="M127.94 117.33C121.52 121.04 121.52 127.05 127.94 130.76C134.36 134.47 144.77 134.46 151.19 130.76C157.61 127.06 157.62 121.04 151.19 117.33C144.76 113.62 134.36 113.62 127.94 117.33Z" fill="#5FB3B3"/>
<path d="M123.85 105.42C123.85 102.99 122.25 100.56 119.04 98.71C112.61 95 102.2 95 95.78 98.71C92.57 100.56 90.97 102.99 90.97 105.42V111.91C90.97 114.34 92.57 116.77 95.78 118.62C102.2 122.33 112.61 122.33 119.04 118.62C122.25 116.77 123.85 114.34 123.85 111.91V105.42Z" fill="#5FB3B3"/>
<path opacity="0.3" d="M119.04 98.75C122.25 100.6 123.85 103.03 123.85 105.46V111.95C123.85 114.38 122.25 116.81 119.04 118.66C115.461 120.554 111.458 121.504 107.41 121.42V95.97C111.46 95.8936 115.462 96.8504 119.04 98.75V98.75Z" fill="black"/>
<path opacity="0.4" d="M95.74 98.75C92.53 100.6 90.93 103.03 90.93 105.46V111.95C90.93 114.38 92.53 116.81 95.74 118.66C99.3308 120.561 103.348 121.511 107.41 121.42V95.97C103.346 95.8854 99.329 96.8425 95.74 98.75V98.75Z" fill="black"/>
<path d="M95.74 98.75C89.32 102.46 89.32 108.47 95.74 112.17C102.16 115.87 112.57 115.88 119 112.17C125.43 108.46 125.42 102.46 119 98.75C112.58 95.04 102.2 95.04 95.74 98.75Z" fill="#5FB3B3"/>
<path d="M188.17 105.47C188.17 103.04 186.56 100.61 183.35 98.76C176.93 95.05 166.52 95.05 160.1 98.76C156.89 100.61 155.28 103.04 155.29 105.47V111.96C155.29 114.39 156.89 116.82 160.1 118.67C166.52 122.38 176.93 122.38 183.35 118.67C186.56 116.82 188.17 114.39 188.17 111.96V105.47Z" fill="#5FB3B3"/>
<path opacity="0.3" d="M183.35 98.76C186.56 100.61 188.17 103.04 188.17 105.47V111.96C188.17 114.39 186.56 116.82 183.35 118.67C179.778 120.562 175.781 121.509 171.74 121.42V95.98C175.783 95.9052 179.779 96.862 183.35 98.76V98.76Z" fill="black"/>
<path opacity="0.4" d="M160.1 98.76C156.89 100.61 155.28 103.04 155.29 105.47V111.96C155.29 114.39 156.89 116.82 160.1 118.67C163.681 120.567 167.689 121.514 171.74 121.42V95.98C167.687 95.9006 163.68 96.8575 160.1 98.76Z" fill="black"/>
<path d="M160.1 98.76C153.68 102.47 153.68 108.48 160.1 112.19C166.52 115.9 176.93 115.89 183.35 112.19C189.77 108.49 189.77 102.47 183.35 98.76C176.93 95.05 166.52 95.05 160.1 98.76Z" fill="#5FB3B3"/>
<path d="M45.29 88.03C49.06 79.81 55.74 67.1 58.9 60.64C63.51 51.34 67.29 49.32 73.61 49.13C76.1 51.29 77.3 58.79 73.27 68.41C69.9 74.19 59.52 91.94 59.52 91.94C60.02 93.38 68.12 113.37 71.44 117.94C72.0383 118.742 72.91 119.297 73.89 119.5C76.51 120.06 79.89 122.13 82.07 123.23C83.81 124.09 85 124.03 84.98 124.51C84.9053 125.06 84.6259 125.561 84.1976 125.913C83.7692 126.265 83.2236 126.443 82.67 126.41C80.9315 126.201 79.2104 125.867 77.52 125.41C79.4158 127.398 81.4438 129.255 83.59 130.97C87.59 134.04 88.11 137.26 81.83 138.63C77.08 139.63 74.03 137.49 68.16 130.17C66.47 128.06 64.43 124.8 62.36 122.06C57.15 115.17 54.36 110.32 51.19 106C42.12 93.82 43.9 91.06 45.29 88.03Z" fill="#FFA8A7"/>
</svg>
