<svg width="148" height="139" viewBox="0 0 148 139" fill="none" xmlns="http://www.w3.org/2000/svg">
<path d="M117.167 63.7083H80.1667V28.9583C80.1667 27.4223 79.517 25.9491 78.3605 24.863C77.204 23.7768 75.6355 23.1667 74 23.1667C72.3645 23.1667 70.796 23.7768 69.6395 24.863C68.4831 25.9491 67.8334 27.4223 67.8334 28.9583V63.7083H30.8334C29.1979 63.7083 27.6293 64.3185 26.4729 65.4047C25.3164 66.4908 24.6667 67.9639 24.6667 69.5C24.6667 71.036 25.3164 72.5092 26.4729 73.5953C27.6293 74.6815 29.1979 75.2917 30.8334 75.2917H67.8334V110.042C67.8334 111.578 68.4831 113.051 69.6395 114.137C70.796 115.223 72.3645 115.833 74 115.833C75.6355 115.833 77.204 115.223 78.3605 114.137C79.517 113.051 80.1667 111.578 80.1667 110.042V75.2917H117.167C118.802 75.2917 120.371 74.6815 121.527 73.5953C122.684 72.5092 123.333 71.036 123.333 69.5C123.333 67.9639 122.684 66.4908 121.527 65.4047C120.371 64.3185 118.802 63.7083 117.167 63.7083Z" fill="#231F20"/>
</svg>
