<svg width="50" height="50" viewBox="0 0 50 50" fill="none" xmlns="http://www.w3.org/2000/svg">
<path d="M41.6667 8.33331H8.33333C7.7808 8.33331 7.25089 8.55281 6.86019 8.94351C6.46949 9.33421 6.25 9.86411 6.25 10.4166V16.6666C6.25 17.2192 6.46949 17.7491 6.86019 18.1398C7.25089 18.5305 7.7808 18.75 8.33333 18.75C8.88587 18.75 9.41577 18.5305 9.80647 18.1398C10.1972 17.7491 10.4167 17.2192 10.4167 16.6666V12.5H22.9167V39.5833H18.75C18.1975 39.5833 17.6676 39.8028 17.2769 40.1935C16.8862 40.5842 16.6667 41.1141 16.6667 41.6666C16.6667 42.2192 16.8862 42.7491 17.2769 43.1398C17.6676 43.5305 18.1975 43.75 18.75 43.75H31.25C31.8025 43.75 32.3324 43.5305 32.7231 43.1398C33.1138 42.7491 33.3333 42.2192 33.3333 41.6666C33.3333 41.1141 33.1138 40.5842 32.7231 40.1935C32.3324 39.8028 31.8025 39.5833 31.25 39.5833H27.0833V12.5H39.5833V16.6666C39.5833 17.2192 39.8028 17.7491 40.1935 18.1398C40.5842 18.5305 41.1141 18.75 41.6667 18.75C42.2192 18.75 42.7491 18.5305 43.1398 18.1398C43.5305 17.7491 43.75 17.2192 43.75 16.6666V10.4166C43.75 9.86411 43.5305 9.33421 43.1398 8.94351C42.7491 8.55281 42.2192 8.33331 41.6667 8.33331V8.33331Z" fill="#231F20"/>
</svg>
