<?xml version="1.0" standalone="no"?>
<!DOCTYPE svg PUBLIC "-//W3C//DTD SVG 20010904//EN"
 "http://www.w3.org/TR/2001/REC-SVG-20010904/DTD/svg10.dtd">
<svg version="1.0" xmlns="http://www.w3.org/2000/svg"
 width="512.000000pt" height="512.000000pt" viewBox="0 0 512.000000 512.000000"
 preserveAspectRatio="xMidYMid meet">

<g transform="translate(0.000000,512.000000) scale(0.100000,-0.100000)"
fill="#000000" stroke="none">
<path d="M425 5095 c-25 -24 -25 -27 -25 -200 l0 -175 -175 0 c-173 0 -176 0
-200 -25 -32 -31 -32 -69 0 -100 l24 -25 266 0 266 0 24 25 c14 13 25 36 25
50 0 28 -40 75 -65 75 -13 0 -15 24 -15 175 0 173 0 176 -25 200 -13 14 -36
25 -50 25 -14 0 -37 -11 -50 -25z"/>
<path d="M4595 5095 l-25 -24 0 -266 0 -266 25 -24 c13 -14 36 -25 50 -25 28
0 75 40 75 65 0 13 24 15 175 15 173 0 176 0 200 25 14 13 25 36 25 50 0 14
-11 37 -25 50 -24 25 -27 25 -200 25 l-175 0 0 175 c0 173 0 176 -25 200 -13
14 -36 25 -50 25 -14 0 -37 -11 -50 -25z"/>
<path d="M762 4713 c-21 -8 -43 -61 -36 -88 10 -40 41 -55 114 -55 57 0 70 3
88 23 29 31 28 72 -3 102 -21 22 -33 25 -87 24 -35 0 -69 -3 -76 -6z"/>
<path d="M1083 4708 c-48 -23 -51 -103 -4 -127 11 -6 48 -11 84 -11 53 0 67 4
85 23 31 33 29 80 -4 106 -30 23 -121 28 -161 9z"/>
<path d="M1403 4708 c-35 -17 -48 -60 -29 -96 19 -37 32 -42 110 -42 52 0 66
4 84 23 31 33 29 80 -4 106 -30 23 -121 28 -161 9z"/>
<path d="M1723 4708 c-32 -16 -46 -63 -28 -98 18 -35 32 -40 109 -40 52 0 66
4 84 23 31 33 29 80 -4 106 -30 23 -121 28 -161 9z"/>
<path d="M2043 4708 c-31 -15 -44 -57 -28 -95 16 -37 30 -43 109 -43 76 0 106
21 106 75 0 50 -37 75 -109 74 -31 0 -66 -5 -78 -11z"/>
<path d="M2356 4698 c-37 -34 -39 -76 -4 -108 17 -16 35 -20 88 -20 80 0 110
20 110 75 0 50 -37 75 -111 75 -46 0 -63 -5 -83 -22z"/>
<path d="M2676 4699 c-34 -27 -36 -79 -4 -109 17 -16 35 -20 88 -20 53 0 71 4
88 20 35 32 33 74 -4 108 -35 31 -129 32 -168 1z"/>
<path d="M2996 4699 c-34 -27 -36 -77 -3 -107 19 -18 35 -22 84 -22 78 0 92 6
108 43 16 39 3 80 -31 96 -42 19 -128 14 -158 -10z"/>
<path d="M3316 4699 c-34 -27 -36 -77 -3 -107 19 -18 35 -22 84 -22 76 0 90 5
108 40 19 36 4 83 -31 99 -42 19 -128 14 -158 -10z"/>
<path d="M3636 4699 c-34 -27 -36 -77 -3 -107 19 -18 35 -22 86 -22 72 0 98
11 112 47 13 35 -4 77 -37 92 -42 19 -128 14 -158 -10z"/>
<path d="M3956 4699 c-34 -27 -36 -77 -3 -107 19 -18 35 -22 86 -22 72 0 98
11 112 47 13 35 -4 77 -37 92 -42 19 -128 14 -158 -10z"/>
<path d="M4275 4695 c-32 -31 -33 -74 -2 -103 19 -18 35 -22 89 -22 83 0 112
19 112 75 0 55 -29 75 -111 75 -55 0 -67 -4 -88 -25z"/>
<path d="M443 4470 c-32 -13 -43 -41 -43 -110 0 -51 4 -65 25 -85 31 -32 74
-33 103 -2 29 31 32 143 5 175 -21 25 -60 35 -90 22z"/>
<path d="M4613 4390 c-32 -13 -43 -41 -43 -113 0 -53 4 -67 23 -85 31 -29 72
-28 102 3 21 20 25 34 25 84 0 74 -5 88 -41 106 -32 17 -35 17 -66 5z"/>
<path d="M444 4149 c-30 -15 -44 -51 -44 -113 0 -68 26 -106 74 -106 53 0 76
33 76 112 0 48 -5 71 -17 86 -22 26 -61 35 -89 21z"/>
<path d="M1402 4068 c-40 -20 -43 -62 -40 -451 l3 -369 24 -19 c40 -33 69 -24
196 61 l120 80 228 0 227 0 0 -987 -1 -988 -190 -113 c-199 -119 -218 -137
-199 -186 22 -58 -13 -56 790 -56 803 0 768 -3 791 57 18 47 -9 72 -205 188
l-185 110 -1 988 0 987 228 0 227 0 120 -80 c132 -88 160 -96 200 -55 l25 24
0 375 c0 257 -4 383 -11 400 -20 43 -47 47 -321 44 -235 -3 -258 -5 -277 -22
-27 -25 -28 -79 -1 -106 19 -19 33 -20 240 -20 l220 0 0 -250 c0 -137 -3 -250
-7 -250 -4 0 -36 19 -72 43 l-65 42 -307 0 c-288 0 -308 -1 -328 -19 l-21 -19
0 -1078 0 -1078 33 -24 c17 -13 61 -41 97 -63 l65 -39 -223 -3 c-122 -1 -322
-1 -445 0 l-222 3 65 39 c36 22 80 50 97 63 l33 24 0 1078 0 1078 -21 19 c-20
18 -40 19 -328 19 l-307 0 -65 -42 c-36 -24 -68 -43 -72 -43 -4 0 -7 113 -7
250 l0 250 683 0 684 0 21 23 c27 29 28 67 3 98 l-19 24 -729 2 c-512 1 -735
-1 -751 -9z"/>
<path d="M4613 4070 c-32 -13 -43 -41 -43 -113 0 -53 4 -67 23 -85 33 -31 80
-29 106 4 15 20 21 41 21 80 0 64 -14 98 -47 113 -28 13 -30 13 -60 1z"/>
<path d="M444 3829 c-30 -15 -44 -51 -44 -113 0 -68 26 -106 74 -106 53 0 76
33 76 112 0 48 -5 71 -17 86 -22 26 -61 35 -89 21z"/>
<path d="M4615 3748 c-36 -19 -45 -40 -45 -108 0 -57 3 -70 23 -88 33 -31 80
-29 106 4 15 20 21 41 21 80 0 64 -14 98 -47 113 -29 13 -33 13 -58 -1z"/>
<path d="M449 3509 c-34 -13 -49 -47 -49 -113 0 -68 26 -106 74 -106 52 0 76
33 76 107 0 34 -3 69 -6 78 -5 13 -56 47 -66 44 -2 0 -15 -5 -29 -10z"/>
<path d="M4613 3425 c-37 -16 -43 -30 -43 -109 0 -52 4 -66 23 -84 33 -31 80
-29 106 4 24 30 29 116 10 158 -16 34 -57 47 -96 31z"/>
<path d="M449 3188 c-34 -11 -49 -46 -49 -112 0 -68 26 -106 74 -106 53 0 76
33 76 109 0 34 -4 71 -10 81 -13 25 -59 39 -91 28z"/>
<path d="M4613 3105 c-37 -16 -43 -30 -43 -109 0 -76 21 -106 75 -106 49 0 75
37 75 106 0 29 -5 64 -11 78 -16 34 -57 47 -96 31z"/>
<path d="M454 2869 c-37 -13 -54 -49 -54 -110 0 -72 25 -109 75 -109 55 0 75
30 75 109 -1 38 -6 73 -14 83 -18 24 -57 37 -82 27z"/>
<path d="M4590 2768 c-16 -17 -20 -35 -20 -88 0 -80 20 -110 75 -110 50 0 75
37 75 110 0 43 -5 64 -21 84 -27 34 -79 36 -109 4z"/>
<path d="M421 2524 c-31 -39 -30 -133 2 -168 33 -37 75 -39 107 -4 16 17 20
35 20 88 0 53 -4 71 -20 88 -30 32 -82 30 -109 -4z"/>
<path d="M4590 2448 c-16 -17 -20 -35 -20 -88 0 -53 4 -71 20 -88 32 -35 74
-33 108 4 31 35 32 129 1 168 -27 34 -79 36 -109 4z"/>
<path d="M421 2204 c-24 -30 -29 -116 -10 -158 16 -34 57 -47 96 -31 37 16 43
30 43 109 0 49 -4 67 -20 84 -30 32 -82 30 -109 -4z"/>
<path d="M4592 2127 c-18 -19 -22 -35 -22 -84 0 -78 6 -92 43 -108 39 -16 80
-3 96 31 19 42 14 128 -10 158 -27 34 -77 36 -107 3z"/>
<path d="M421 1884 c-24 -30 -29 -116 -10 -158 16 -35 63 -50 99 -31 35 18 40
32 40 109 0 52 -4 66 -23 84 -33 31 -80 29 -106 -4z"/>
<path d="M4592 1807 c-18 -19 -22 -35 -22 -84 0 -76 5 -90 40 -108 36 -19 83
-4 99 31 19 42 14 128 -10 158 -27 34 -77 36 -107 3z"/>
<path d="M421 1564 c-24 -30 -29 -116 -10 -158 17 -37 60 -51 97 -32 37 19 42
32 42 110 0 52 -4 66 -23 84 -33 31 -80 29 -106 -4z"/>
<path d="M4592 1487 c-18 -19 -22 -35 -22 -86 0 -72 11 -98 47 -112 35 -13 77
4 92 37 19 42 14 128 -10 158 -27 34 -77 36 -107 3z"/>
<path d="M421 1244 c-24 -30 -29 -116 -10 -158 15 -33 57 -50 92 -37 36 14 47
40 47 114 0 53 -4 67 -23 85 -33 31 -80 29 -106 -4z"/>
<path d="M4592 1167 c-18 -19 -22 -35 -22 -86 0 -72 11 -98 47 -112 35 -13 77
4 92 37 19 42 14 128 -10 158 -27 34 -77 36 -107 3z"/>
<path d="M425 925 c-21 -20 -25 -34 -25 -84 0 -33 3 -67 6 -76 10 -24 60 -46
89 -39 40 10 55 41 55 114 0 57 -3 70 -23 88 -31 29 -72 28 -102 -3z"/>
<path d="M4592 847 c-18 -19 -22 -35 -22 -89 0 -83 19 -112 75 -112 55 0 75
29 75 111 0 55 -4 67 -25 88 -31 32 -74 33 -103 2z"/>
<path d="M425 605 c-14 -13 -25 -31 -25 -40 0 -13 -24 -15 -175 -15 -173 0
-176 0 -200 -25 -14 -13 -25 -36 -25 -50 0 -14 11 -37 25 -50 24 -25 27 -25
200 -25 l175 0 0 -175 c0 -173 0 -176 25 -200 13 -14 36 -25 50 -25 14 0 37
11 50 25 l25 24 0 266 0 266 -25 24 c-13 14 -36 25 -50 25 -14 0 -37 -11 -50
-25z"/>
<path d="M669 531 c-17 -13 -23 -29 -23 -56 0 -55 29 -75 111 -75 55 0 67 4
88 25 32 31 33 74 2 103 -32 30 -143 32 -178 3z"/>
<path d="M997 539 c-46 -27 -41 -105 9 -128 42 -19 128 -14 158 10 34 27 36
77 3 107 -19 18 -35 22 -88 22 -35 0 -72 -5 -82 -11z"/>
<path d="M1317 539 c-46 -27 -41 -105 9 -128 42 -19 128 -14 158 10 34 27 36
77 3 107 -19 18 -35 22 -88 22 -35 0 -72 -5 -82 -11z"/>
<path d="M1642 543 c-25 -10 -42 -59 -31 -91 13 -37 45 -52 113 -52 68 0 106
26 106 74 0 54 -33 76 -111 75 -35 0 -70 -3 -77 -6z"/>
<path d="M1957 538 c-42 -33 -37 -106 9 -127 42 -19 128 -14 158 10 34 27 36
77 3 107 -19 18 -35 22 -88 22 -37 0 -72 -5 -82 -12z"/>
<path d="M2272 530 c-35 -32 -33 -74 4 -107 35 -32 129 -33 168 -2 34 27 36
79 4 109 -31 29 -145 29 -176 0z"/>
<path d="M2592 530 c-32 -30 -30 -82 4 -109 20 -16 41 -21 84 -21 73 0 110 25
110 75 0 55 -30 75 -110 75 -53 0 -71 -4 -88 -20z"/>
<path d="M2912 530 c-32 -30 -30 -82 4 -109 30 -24 116 -29 158 -10 34 16 47
57 31 96 -16 37 -30 43 -109 43 -49 0 -67 -4 -84 -20z"/>
<path d="M3232 527 c-31 -33 -29 -80 4 -106 30 -24 116 -29 158 -10 35 16 50
63 31 99 -18 35 -32 40 -109 40 -52 0 -66 -4 -84 -23z"/>
<path d="M3552 527 c-31 -33 -29 -80 4 -106 30 -24 116 -29 158 -10 37 17 51
60 32 97 -19 37 -32 42 -110 42 -52 0 -66 -4 -84 -23z"/>
<path d="M3872 527 c-31 -33 -29 -80 4 -106 30 -24 116 -29 158 -10 33 15 50
57 37 92 -14 36 -40 47 -114 47 -53 0 -67 -4 -85 -23z"/>
<path d="M4192 527 c-29 -31 -28 -72 3 -102 20 -21 34 -25 84 -25 33 0 67 3
76 6 24 10 46 60 39 89 -10 40 -41 55 -114 55 -57 0 -70 -3 -88 -23z"/>
<path d="M4515 525 c-14 -13 -25 -36 -25 -50 0 -28 40 -75 65 -75 13 0 15 -24
15 -175 0 -173 0 -176 25 -200 31 -32 69 -32 100 0 25 24 25 27 25 200 l0 175
175 0 c173 0 176 0 200 25 14 13 25 36 25 50 0 14 -11 37 -25 50 l-24 25 -266
0 -266 0 -24 -25z"/>
</g>
</svg>
